<svg xmlns="http://www.w3.org/2000/svg"  viewBox="0 0 100 100" width="500px" height="500px"><path fill="#c7ede6" d="M87.215,55.71C88.35,53.555,89,51.105,89,48.5c0-6.621-4.159-12.257-10.001-14.478 C78.999,34.015,79,34.008,79,34c0-11.598-9.402-21-21-21c-9.784,0-17.981,6.701-20.313,15.757C36.211,28.272,34.638,28,33,28 c-7.692,0-14.023,5.793-14.89,13.252C12.906,42.353,9,46.969,9,52.5C9,58.851,14.149,64,20.5,64 c0.177,0,0.352-0.012,0.526-0.022C21.022,64.153,21,64.324,21,64.5C21,75.822,30.178,85,41.5,85 c6.437,0,12.175-2.972,15.934-7.614C59.612,79.611,62.64,81,66,81c4.65,0,8.674-2.65,10.666-6.518 C77.718,74.817,78.837,75,80,75c6.075,0,11-4.925,11-11C91,60.689,89.53,57.727,87.215,55.71z"/><path fill="#fff" d="M26.5,35h-10c-0.276,0-0.5-0.224-0.5-0.5s0.224-0.5,0.5-0.5h10c0.276,0,0.5,0.224,0.5,0.5 S26.776,35,26.5,35z"/><path fill="#fff" d="M30.5,35h-2c-0.276,0-0.5-0.224-0.5-0.5s0.224-0.5,0.5-0.5h2c0.276,0,0.5,0.224,0.5,0.5 S30.776,35,30.5,35z"/><path fill="#fff" d="M35.5,37h-10c-0.276,0-0.5-0.224-0.5-0.5s0.224-0.5,0.5-0.5h10c0.276,0,0.5,0.224,0.5,0.5 S35.777,37,35.5,37z"/><path fill="#fff" d="M23.5,37h-1c-0.276,0-0.5-0.224-0.5-0.5s0.224-0.5,0.5-0.5h1c0.276,0,0.5,0.224,0.5,0.5 S23.776,37,23.5,37z"/><path fill="#fff" d="M29.5,33h-5c-0.276,0-0.5-0.224-0.5-0.5s0.224-0.5,0.5-0.5h5c0.276,0,0.5,0.224,0.5,0.5 S29.777,33,29.5,33z"/><path fill="#fff" d="M26.5,39h-2c-0.276,0-0.5-0.224-0.5-0.5s0.224-0.5,0.5-0.5h2c0.276,0,0.5,0.224,0.5,0.5 S26.776,39,26.5,39z"/><path fill="#fdfcef" d="M70.164,39.194v0.5h-3v-0.5c0,0-4.242,0-5.5,0c-2.485,0-4.5-2.015-4.5-4.5 c0-2.333,1.782-4.229,4.055-4.455c-0.022-0.181-0.055-0.358-0.055-0.545c0-2.485,2.015-4.5,4.5-4.5 c1.438,0,2.703,0.686,3.527,1.736c0.14-2.636,2.302-4.736,4.973-4.736c2.761,0,5,2.239,5,5c0,0.446-0.077,0.87-0.187,1.282 c0.642-0.777,1.6-1.282,2.687-1.282c1.781,0,3.234,1.335,3.455,3.055c0.181-0.022,0.358-0.055,0.545-0.055 c2.485,0,4.5,2.015,4.5,4.5s-2.015,4.5-4.5,4.5s-9.5,0-9.5,0H70.164z"/><path fill="#472b29" d="M74.164,21.694c3.033,0,5.5,2.467,5.5,5.5c0,0.016,0,0.031,0,0.047 c0.602-0.355,1.29-0.547,2-0.547c1.831,0,3.411,1.261,3.858,3.005c0.047-0.003,0.094-0.005,0.142-0.005c2.757,0,5,2.243,5,5 s-2.243,5-5,5h-15.5c-0.276,0-0.5-0.224-0.5-0.5s0.224-0.5,0.5-0.5h15.5c2.206,0,4-1.794,4-4s-1.794-4-4-4 c-0.117,0-0.23,0.017-0.343,0.032l-0.141,0.019c-0.021,0.003-0.041,0.004-0.062,0.004c-0.246,0-0.462-0.185-0.495-0.437 c-0.191-1.493-1.463-2.618-2.959-2.618c-0.885,0-1.723,0.401-2.301,1.1c-0.098,0.118-0.241,0.182-0.386,0.182 c-0.078,0-0.156-0.018-0.228-0.056c-0.209-0.107-0.314-0.346-0.254-0.573c0.115-0.435,0.169-0.801,0.169-1.153 c0-2.481-2.019-4.5-4.5-4.5c-2.381,0-4.347,1.872-4.474,4.263c-0.011,0.208-0.15,0.387-0.349,0.45 c-0.05,0.016-0.101,0.024-0.152,0.024c-0.15,0-0.296-0.069-0.392-0.192c-0.771-0.982-1.912-1.545-3.133-1.545 c-2.206,0-4,1.794-4,4c0,0.117,0.017,0.23,0.032,0.343l0.019,0.141c0.016,0.134-0.022,0.268-0.106,0.373 c-0.084,0.105-0.207,0.172-0.34,0.185c-2.056,0.205-3.605,1.907-3.605,3.958c0,2.206,1.794,4,4,4h5.5 c0.276,0,0.5,0.224,0.5,0.5s-0.224,0.5-0.5,0.5h-5.5c-2.757,0-5-2.243-5-5c0-2.397,1.689-4.413,4.003-4.877 c-0.002-0.041-0.003-0.082-0.003-0.123c0-2.757,2.243-5,5-5c1.176,0,2.293,0.416,3.183,1.164 C69.445,23.454,71.609,21.694,74.164,21.694L74.164,21.694z"/><path fill="#472b29" d="M75.664,28.694c1.403,0,2.609,0.999,2.913,2.341c0.367-0.222,0.786-0.341,1.212-0.341 c1.202,0,2.198,0.897,2.353,2.068c0.203-0.046,0.396-0.068,0.585-0.068c1.529,0,2.811,1.2,2.918,2.732 c0.009,0.138-0.095,0.258-0.232,0.268c-0.006,0-0.012,0-0.018,0c-0.13,0-0.24-0.101-0.249-0.232 c-0.089-1.271-1.151-2.268-2.419-2.268c-0.229,0-0.47,0.042-0.738,0.127c-0.022,0.007-0.045,0.01-0.067,0.01 c-0.055,0-0.11-0.02-0.156-0.054c-0.064-0.046-0.102-0.128-0.102-0.208c0-1.034-0.841-1.875-1.875-1.875 c-0.447,0-0.885,0.168-1.231,0.473c-0.047,0.041-0.106,0.063-0.165,0.063c-0.032,0-0.063-0.006-0.093-0.019 c-0.088-0.035-0.148-0.117-0.155-0.212c-0.104-1.293-1.193-2.305-2.481-2.305c-0.208,0-0.425,0.034-0.682,0.107 c-0.023,0.007-0.047,0.01-0.07,0.01c-0.109,0-0.207-0.073-0.239-0.182c-0.038-0.133,0.039-0.271,0.172-0.309 C75.147,28.734,75.408,28.694,75.664,28.694L75.664,28.694z"/><path fill="#472b29" d="M61.781,30.194c1.326,0,2.508,0.897,2.874,2.182c0.038,0.133-0.039,0.271-0.172,0.309 c-0.024,0.006-0.047,0.009-0.069,0.009c-0.109,0-0.209-0.072-0.24-0.182c-0.305-1.07-1.289-1.818-2.393-1.818 c-0.117,0-0.23,0.014-0.342,0.029c-0.012,0.002-0.023,0.003-0.035,0.003c-0.121,0-0.229-0.092-0.246-0.217 c-0.019-0.137,0.077-0.263,0.214-0.281C61.506,30.21,61.642,30.194,61.781,30.194L61.781,30.194z"/><g><path fill="#fff" d="M26.5,73h-10c-0.276,0-0.5-0.224-0.5-0.5s0.224-0.5,0.5-0.5h10c0.276,0,0.5,0.224,0.5,0.5 S26.777,73,26.5,73z"/></g><g><circle cx="51" cy="50" r="23" fill="#ee3e54"/><path fill="#472b29" d="M50.999,27.4C63.461,27.4,73.6,37.538,73.6,49.999C73.6,62.461,63.461,72.6,50.999,72.6 C38.538,72.6,28.4,62.462,28.4,50S38.538,27.4,50.999,27.4 M50.999,26C37.765,26,27,36.766,27,50s10.765,24,23.999,24 C64.234,74,75,63.233,75,49.999S64.234,26,50.999,26L50.999,26z"/></g><g><path fill="#472b29" d="M68.399,59.188c-0.073,0-0.148-0.017-0.218-0.051c-0.249-0.121-0.352-0.42-0.231-0.668 c0.126-0.259,0.246-0.52,0.359-0.782c0.44-1.021,0.79-2.089,1.041-3.176c0.063-0.27,0.331-0.438,0.6-0.375s0.437,0.331,0.375,0.6 c-0.265,1.146-0.634,2.271-1.097,3.347c-0.119,0.277-0.245,0.552-0.378,0.824C68.762,59.085,68.584,59.188,68.399,59.188z"/></g><g><path fill="#472b29" d="M70.411,52.378c-0.015,0-0.03-0.001-0.045-0.002c-0.275-0.025-0.478-0.269-0.453-0.543 c0.037-0.409,0.061-0.82,0.071-1.23c0.064-2.552-0.374-5.047-1.299-7.417c-0.101-0.257,0.027-0.547,0.284-0.647 c0.259-0.101,0.547,0.025,0.648,0.284c0.975,2.493,1.435,5.12,1.368,7.806c-0.011,0.432-0.036,0.864-0.075,1.295 C70.885,52.183,70.667,52.378,70.411,52.378z"/></g><g><path fill="#472b29" d="M36.734,37.24c-0.123,0-0.245-0.045-0.341-0.135c-0.202-0.188-0.212-0.505-0.024-0.706 c3.259-3.491,7.669-5.696,12.418-6.209c0.279-0.033,0.521,0.169,0.551,0.443s-0.169,0.521-0.443,0.551 c-4.511,0.487-8.7,2.582-11.794,5.896C37.001,37.187,36.868,37.24,36.734,37.24z"/></g><g><path fill="#472b29" d="M37.721,64.782c-0.123,0-0.245-0.045-0.341-0.135c-6.812-6.36-8.363-16.435-3.772-24.499 c0.136-0.241,0.441-0.323,0.682-0.188c0.24,0.137,0.324,0.442,0.187,0.682c-4.36,7.661-2.886,17.231,3.586,23.274 c0.202,0.188,0.212,0.505,0.024,0.706C37.988,64.729,37.855,64.782,37.721,64.782z"/></g><g><path fill="#472b29" d="M59.515,68.119c-0.186,0-0.365-0.104-0.451-0.283c-0.12-0.248-0.016-0.547,0.233-0.667 c2.107-1.016,3.992-2.405,5.604-4.13c0.65-0.697,1.251-1.445,1.786-2.225c0.156-0.226,0.468-0.283,0.695-0.129 c0.228,0.156,0.286,0.468,0.129,0.695c-0.563,0.819-1.195,1.607-1.879,2.34c-1.696,1.816-3.681,3.279-5.9,4.349 C59.661,68.104,59.587,68.119,59.515,68.119z"/></g><g><path fill="#fdfcef" d="M28.511,74.431c0,0-1.567,0-3.5,0s-3.5-1.567-3.5-3.5c0-1.781,1.335-3.234,3.055-3.455 c-0.028-0.179-0.055-0.358-0.055-0.545c0-1.933,1.567-3.5,3.5-3.5c1.032,0,1.95,0.455,2.59,1.165 c0.384-1.808,1.987-3.165,3.91-3.165c2.209,0,4,1.791,4,4c0,0.191-0.03,0.374-0.056,0.558c0.428-0.344,0.964-0.558,1.556-0.558 c1.228,0,2.245,0.887,2.455,2.055c0.179-0.028,0.358-0.055,0.545-0.055c1.933,0,3.5,1.567,3.5,3.5s-1.567,3.5-3.5,3.5 s-7.5,0-7.5,0v0.5h-7V74.431z"/><path fill="#472b29" d="M26.761,69.931c0.138,0,0.25-0.112,0.25-0.25c0-1.223-0.995-2.218-2.218-2.218 c-0.034,0.009-0.737-0.001-1.244,0.136c-0.133,0.036-0.212,0.173-0.176,0.306c0.036,0.134,0.173,0.213,0.306,0.176 c0.444-0.12,1.1-0.12,1.113-0.118c0.948,0,1.719,0.771,1.719,1.718C26.511,69.819,26.623,69.931,26.761,69.931z"/><circle cx="33.511" cy="74.431" r=".5" fill="#472b29"/><path fill="#472b29" d="M25.011,74.931h3.5c0.276,0,0.5-0.224,0.5-0.5s-0.224-0.5-0.5-0.5h-3.5c-1.654,0-3-1.346-3-3 c0-1.496,1.125-2.768,2.618-2.959c0.134-0.018,0.255-0.088,0.336-0.196c0.081-0.108,0.115-0.244,0.094-0.377 c-0.023-0.154-0.048-0.308-0.048-0.468c0-1.654,1.346-3,3-3c0.85,0,1.638,0.355,2.219,1c0.125,0.139,0.321,0.198,0.5,0.148 c0.182-0.049,0.321-0.195,0.36-0.379c0.341-1.604,1.78-2.769,3.421-2.769c1.93,0,3.5,1.57,3.5,3.5 c0,0.143-0.021,0.28-0.041,0.418c-0.029,0.203,0.063,0.438,0.242,0.54c0.179,0.102,0.396,0.118,0.556-0.01 c0.365-0.293,0.794-0.448,1.243-0.448c0.966,0,1.792,0.691,1.963,1.644c0.048,0.267,0.296,0.446,0.569,0.405 c0.154-0.024,0.308-0.049,0.468-0.049c1.654,0,3,1.346,3,3s-1.346,3-3,3h-7.5c-0.276,0-0.5,0.224-0.5,0.5s0.224,0.5,0.5,0.5 h7.5c2.206,0,4-1.794,4-4s-1.794-4-4-4c-0.059,0-0.116,0.002-0.174,0.006c-0.414-1.186-1.537-2.006-2.826-2.006 c-0.349,0-0.689,0.061-1.011,0.18c-0.165-2.333-2.115-4.18-4.489-4.18c-1.831,0-3.466,1.127-4.153,2.774 c-0.68-0.498-1.502-0.774-2.347-0.774c-2.206,0-4,1.794-4,4c0,0.048,0.001,0.095,0.004,0.142 c-1.743,0.448-3.004,2.027-3.004,3.858C21.011,73.137,22.805,74.931,25.011,74.931z"/><path fill="#472b29" d="M30.511,73.931c0.159,0,0.841,0,1,0c0.276,0,0.5,0.224,0.5,0.5s-0.224,0.5-0.5,0.5 c-0.159,0-0.841,0-1,0c-0.276,0-0.5-0.224-0.5-0.5S30.235,73.931,30.511,73.931z"/></g><g><path fill="#fff" d="M50.95,34.405c-8.58,0-15.54,6.96-15.54,15.54c0,8.58,6.96,15.54,15.54,15.54 s15.54-6.96,15.54-15.54C66.49,41.365,59.53,34.405,50.95,34.405z M50.95,58.225c-4.57,0-8.27-3.71-8.27-8.28s3.7-8.27,8.27-8.27 s8.28,3.7,8.28,8.27S55.52,58.225,50.95,58.225z"/><path fill="#472b29" d="M50.95,65.985c-8.845,0-16.04-7.195-16.04-16.04s7.195-16.04,16.04-16.04s16.04,7.195,16.04,16.04 S59.795,65.985,50.95,65.985z M50.95,34.905c-8.293,0-15.04,6.747-15.04,15.04s6.747,15.04,15.04,15.04s15.04-6.747,15.04-15.04 S59.243,34.905,50.95,34.905z M50.95,58.725c-4.836,0-8.77-3.938-8.77-8.779c0-4.836,3.934-8.771,8.77-8.771 c4.841,0,8.78,3.935,8.78,8.771C59.73,54.786,55.792,58.725,50.95,58.725z M50.95,42.175c-4.284,0-7.77,3.485-7.77,7.771 c0,4.289,3.486,7.779,7.77,7.779c4.29,0,7.78-3.49,7.78-7.779C58.73,45.66,55.24,42.175,50.95,42.175z"/></g></svg>