<?xml version="1.0" standalone="no"?>
<!DOCTYPE svg PUBLIC "-//W3C//DTD SVG 20010904//EN"
 "http://www.w3.org/TR/2001/REC-SVG-20010904/DTD/svg10.dtd">
<svg version="1.0" xmlns="http://www.w3.org/2000/svg"
 width="292.000000pt" height="400.000000pt" viewBox="0 0 292.000000 400.000000"
 preserveAspectRatio="xMidYMid meet">

<g transform="translate(0.000000,400.000000) scale(0.100000,-0.100000)"
fill="#000000" stroke="none">
<path d="M0 3751 c0 -229 1 -250 18 -254 14 -4 14 -5 1 -6 -13 -1 -16 -14 -18
-61 -1 -43 2 -60 11 -60 9 0 9 -3 2 -8 -14 -9 -18 -252 -4 -252 6 0 10 6 10
14 0 8 7 17 16 20 24 9 31 7 14 -4 -10 -6 -11 -10 -2 -10 6 0 12 -10 11 -22 0
-22 -1 -22 -9 -3 -5 11 -9 14 -9 8 -1 -7 -10 -13 -21 -13 -16 0 -20 -7 -20
-30 0 -31 14 -41 23 -16 3 8 1 17 -6 20 -7 2 0 5 16 5 15 1 27 -1 27 -4 0 -10
-35 -45 -45 -45 -6 0 -12 -20 -14 -45 -2 -48 14 -62 25 -21 7 29 30 41 38 20
3 -8 -1 -14 -9 -14 -7 0 -17 -5 -21 -12 -5 -7 -3 -8 5 -3 9 5 12 2 9 -11 -2
-11 -10 -18 -17 -16 -9 2 -11 -3 -8 -13 4 -10 1 -15 -11 -15 -14 0 -14 -2 -3
-9 12 -8 12 -14 1 -40 -13 -33 -6 -56 10 -31 6 8 10 10 10 4 0 -7 7 -14 15
-18 13 -5 14 -2 4 16 -9 17 -9 23 0 26 6 2 11 11 11 20 0 11 6 6 15 -12 20
-38 20 -71 0 -36 -8 14 -14 20 -15 15 0 -6 7 -21 16 -33 8 -12 12 -27 9 -32
-12 -19 -13 -80 -2 -73 6 4 8 -2 5 -15 -4 -16 -2 -19 10 -15 11 5 14 2 9 -10
-3 -9 -3 -17 2 -17 5 0 11 9 14 20 3 11 2 20 -1 20 -13 0 -29 48 -21 62 5 7 9
28 9 46 0 19 5 32 13 32 8 0 9 3 1 8 -17 11 -36 52 -24 52 5 0 10 -4 10 -10 0
-5 5 -10 12 -10 6 0 8 3 5 6 -3 4 -2 14 2 23 10 18 -4 44 -29 54 -12 4 -11 6
3 6 9 1 17 6 17 12 0 5 -4 8 -8 5 -5 -3 -4 10 2 29 6 19 17 33 26 33 8 -1 27
2 42 6 31 9 40 -11 25 -56 -6 -18 -5 -39 2 -59 6 -18 11 -52 11 -77 0 -25 3
-42 7 -38 11 10 6 92 -6 115 -9 15 -9 32 -1 61 6 22 10 47 8 54 -2 8 2 15 7
14 6 0 9 -4 7 -10 -1 -5 2 -6 8 -3 6 4 9 12 7 18 -5 16 23 36 50 37 19 0 25
-8 34 -45 6 -25 16 -45 21 -45 15 0 0 -81 -19 -102 -8 -9 -19 -38 -24 -64 -11
-56 -17 -65 -30 -41 -13 23 -25 22 -32 -3 -6 -22 8 -28 16 -7 3 7 6 4 6 -7 1
-12 6 -16 16 -12 9 3 15 0 15 -8 0 -10 -10 -13 -35 -11 -32 3 -34 2 -25 -16 6
-10 7 -19 2 -19 -5 0 -7 -13 -4 -30 2 -16 8 -30 13 -30 12 0 24 -33 33 -89 5
-36 4 -42 -8 -38 -9 4 -17 -1 -19 -11 -4 -16 -5 -15 -6 1 -2 29 -39 21 -46
-11 -3 -16 -12 -29 -20 -29 -20 0 -19 5 10 52 14 22 25 45 25 50 0 6 -5 2 -11
-7 -5 -10 -15 -18 -20 -18 -6 0 -7 5 -3 11 4 7 1 10 -7 7 -7 -2 -18 -21 -22
-42 -8 -31 -12 -36 -31 -30 -11 4 -23 11 -24 15 -6 15 -20 10 -25 -8 -4 -17
-5 -17 -6 0 0 9 -6 17 -12 17 -5 0 -7 5 -4 10 4 6 10 8 14 5 5 -2 6 7 3 21
l-5 26 -19 -30 c-11 -17 -25 -29 -32 -26 -9 3 -16 -5 -21 -23 -4 -17 -2 -29 4
-31 14 -5 14 -32 1 -32 -7 0 -10 -142 -10 -405 0 -263 3 -405 10 -405 6 0 10
-8 10 -17 0 -15 -2 -16 -10 -3 -7 11 -9 4 -9 -25 1 -36 2 -37 10 -15 6 19 7
14 4 -20 -2 -25 -7 -56 -10 -70 -4 -21 -4 -22 3 -5 7 15 11 2 17 -52 4 -39 4
-81 0 -92 -3 -12 -2 -21 3 -21 10 0 24 -41 17 -48 -2 -2 -12 5 -23 16 -19 19
-20 19 -19 -5 0 -16 4 -22 13 -19 15 6 19 -6 7 -18 -14 -14 -16 -67 -20 -644
l-4 -592 435 0 c338 0 435 3 439 13 4 9 6 9 6 0 1 -20 321 -18 321 1 0 8 -7
16 -15 20 -8 3 -15 10 -15 16 0 8 6 8 20 0 11 -6 20 -20 20 -30 0 -20 12 -20
855 -20 l855 0 0 1574 c0 1241 -3 1576 -13 1580 -9 5 -9 7 0 12 25 11 13 30
-21 31 -28 0 -32 -2 -23 -12 9 -9 14 -10 19 -1 6 8 8 8 8 -1 0 -17 -23 -29
-28 -15 -2 7 -11 12 -19 12 -13 0 -13 -3 -3 -15 17 -21 7 -29 -19 -15 -12 6
-21 7 -22 3 -1 -13 -22 40 -24 62 -1 11 1 29 6 40 4 11 8 15 8 9 1 -7 8 -14
16 -18 13 -4 13 -2 5 14 -16 30 -13 42 9 30 27 -14 34 -13 27 5 -3 9 0 15 10
15 8 0 13 -4 10 -9 -3 -5 1 -11 9 -15 8 -3 17 -1 20 5 4 5 11 7 16 4 5 -4 9 5
9 19 0 14 -4 26 -10 26 -5 0 -10 -7 -10 -15 0 -8 -4 -15 -10 -15 -11 0 -13 11
-4 34 3 9 12 16 20 16 12 0 14 53 14 320 l0 320 -1460 0 -1460 0 0 -249z
m2649 -25 c-2 -2 -15 -9 -29 -16 -23 -12 -24 -12 -11 3 7 10 20 17 29 17 8 0
13 -2 11 -4z m-2058 -89 c-10 -9 -11 -8 -5 6 3 10 9 15 12 12 3 -3 0 -11 -7
-18z m50 -104 c13 -16 12 -17 -3 -4 -10 7 -18 15 -18 17 0 8 8 3 21 -13z m-68
-101 c2 -80 -21 -132 -30 -69 -2 12 3 26 10 32 11 8 12 16 4 35 l-10 25 -7
-25 -8 -25 -1 28 c-1 18 4 27 15 27 9 0 14 6 11 13 -2 6 -9 11 -15 10 -6 -2
-9 4 -6 12 11 29 36 -13 37 -63z m522 63 c70 -11 144 -54 187 -109 22 -28 49
-62 60 -76 11 -14 25 -35 30 -47 6 -13 15 -23 20 -23 4 0 8 -9 8 -20 0 -11 4
-20 8 -20 13 0 43 -81 35 -93 -3 -6 -1 -7 5 -3 6 3 13 -2 17 -13 3 -11 12 -22
21 -25 17 -7 57 -94 49 -107 -4 -5 -18 -1 -33 9 -19 12 -24 13 -17 3 8 -15 8
-15 -44 7 -9 3 -12 1 -7 -6 7 -12 -10 -16 -46 -13 -11 2 -16 -3 -13 -11 3 -8
-4 -14 -20 -14 -30 -2 -34 22 -6 31 11 3 24 20 30 38 l12 32 -25 -25 c-39 -39
-51 -47 -63 -43 -6 2 -14 0 -17 -6 -4 -6 -13 -8 -21 -4 -9 3 -15 -1 -15 -11 0
-9 -6 -16 -12 -16 -7 -1 -28 -20 -47 -44 -30 -39 -37 -43 -61 -36 -21 6 -31 3
-44 -11 -9 -11 -20 -17 -25 -14 -5 2 -12 -2 -15 -11 -3 -8 -10 -13 -15 -9 -5
3 -12 -4 -16 -15 -8 -24 -37 -26 -55 -5 -7 9 -20 15 -29 13 -9 -1 -22 1 -28 5
-9 6 -13 2 -13 -10 0 -20 -59 -93 -75 -93 -6 0 -11 -9 -11 -21 0 -17 5 -20 33
-17 30 4 32 2 26 -22 -4 -14 -7 -35 -6 -47 0 -12 -5 -24 -12 -27 -19 -7 -37
18 -40 54 -1 17 -5 33 -9 37 -11 11 -7 58 7 72 10 10 8 11 -7 5 -11 -4 -17 -3
-13 2 3 5 -1 34 -9 64 -56 206 -56 209 -44 268 6 31 14 74 17 95 3 22 10 36
17 34 6 -2 18 -1 27 4 12 6 25 2 42 -11 28 -22 62 -25 102 -10 17 6 24 14 19
22 -5 9 -2 9 9 -1 15 -12 17 -11 17 5 0 11 -7 27 -14 37 -12 16 -14 15 -20
-18 -8 -39 -10 -40 -45 -21 -14 8 -31 12 -38 9 -7 -3 -13 0 -13 6 0 6 -7 11
-15 11 -7 0 -19 8 -24 18 -10 16 -10 16 -11 -1 0 -10 -4 -15 -10 -12 -5 3 -10
-1 -10 -9 0 -16 -19 -23 -21 -8 0 4 -3 23 -5 42 -18 126 -4 165 76 209 62 35
150 43 265 26z m-474 -38 c4 -28 2 -41 -13 -53 -17 -17 -18 -16 -7 15 9 27 9
35 -2 42 -12 7 -12 9 0 9 11 0 11 3 0 17 -12 14 -12 16 1 11 8 -2 18 -21 21
-41z m-235 15 c-5 -13 0 -18 16 -19 12 -1 26 3 30 10 5 8 8 9 8 1 0 -7 -12
-19 -26 -29 -22 -14 -25 -22 -20 -47 5 -26 4 -29 -9 -18 -15 12 -16 35 -2 57
4 6 3 14 -3 18 -13 8 -13 45 1 45 6 0 8 -8 5 -18z m-51 -2 c3 -5 1 -10 -4 -10
-6 0 -11 5 -11 10 0 6 2 10 4 10 3 0 8 -4 11 -10z m2260 -20 c19 -36 20 -80 2
-80 -9 0 -17 21 -24 55 -11 61 -2 71 22 25z m-499 12 c6 -4 14 -16 17 -27 7
-19 6 -19 -11 1 -10 12 -27 24 -38 27 -18 4 -18 5 1 6 11 0 25 -3 31 -7z
m-1586 -22 c0 -11 -2 -20 -4 -20 -2 0 -6 9 -9 20 -3 11 -1 20 4 20 5 0 9 -9 9
-20z m-203 -12 c-3 -8 -6 -5 -6 6 -1 11 2 17 5 13 3 -3 4 -12 1 -19z m50 -13
c-1 -37 -13 -47 -19 -17 -5 22 2 52 12 52 4 0 8 -16 7 -35z m2344 -12 c-9 -16
-10 -16 -11 -1 0 9 3 25 7 35 7 16 8 17 11 1 2 -10 -1 -25 -7 -35z m93 18 c3
-5 -8 -11 -25 -15 -21 -4 -28 -10 -23 -18 4 -7 4 -10 -1 -6 -4 4 -14 3 -22 -3
-21 -18 -15 6 7 26 11 10 20 14 20 10 0 -5 5 -4 12 3 14 14 25 15 32 3z
m-2128 -9 c-2 -4 -1 -14 4 -22 7 -11 11 -11 24 -1 13 11 13 9 3 -13 -15 -32
-19 -32 -34 0 -11 24 -10 44 3 44 3 0 3 -4 0 -8z m1514 -7 c0 -8 -4 -15 -10
-15 -5 0 -7 7 -4 15 4 8 8 15 10 15 2 0 4 -7 4 -15z m-2070 -5 c0 -5 -5 -10
-11 -10 -5 0 -7 5 -4 10 3 6 8 10 11 10 2 0 4 -4 4 -10z m23 -5 c-3 -9 -8 -14
-10 -11 -3 3 -2 9 2 15 9 16 15 13 8 -4z m367 -25 c0 -13 -1 -13 -10 0 -5 8
-10 22 -10 30 0 13 1 13 10 0 5 -8 10 -22 10 -30z m-233 -2 c-3 -7 -5 -2 -5
12 0 14 2 19 5 13 2 -7 2 -19 0 -25z m187 10 c14 -15 15 -18 3 -18 -8 0 -18 7
-21 16 -3 8 -10 13 -15 9 -5 -3 -12 -1 -15 3 -10 16 30 7 48 -10z m-272 -6
c-7 -2 -9 -9 -5 -15 3 -7 2 -8 -2 -4 -16 14 -14 36 3 29 10 -4 12 -7 4 -10z
m-72 2 c0 -3 -7 -12 -15 -20 -16 -17 -18 -14 -9 10 6 15 24 23 24 10z m530
-15 c0 -6 -4 -7 -10 -4 -5 3 -10 11 -10 16 0 6 5 7 10 4 6 -3 10 -11 10 -16z
m-328 -2 c18 15 54 -1 61 -26 3 -12 0 -21 -6 -22 -7 0 -3 -4 8 -8 17 -7 16 -9
-10 -15 -15 -4 -40 -16 -53 -27 -30 -23 -27 -23 28 -4 49 17 50 17 50 7 0 -4
-12 -15 -27 -24 l-27 -16 49 4 c63 6 85 -1 60 -20 -10 -7 -27 -11 -38 -8 -14
3 -18 1 -13 -6 4 -8 0 -12 -11 -12 -10 0 -28 -3 -40 -6 -16 -5 -27 2 -47 32
-26 39 -36 104 -15 104 8 0 9 11 5 33 -4 21 -3 27 3 18 7 -11 13 -12 23 -4z
m98 -17 c13 -8 13 -10 -2 -10 -9 0 -20 5 -23 10 -8 13 5 13 25 0z m1486 -28
c-9 -8 -26 10 -26 26 1 15 2 15 15 -2 8 -11 13 -21 11 -24z m977 23 c-3 -9 -8
-14 -10 -11 -3 3 -2 9 2 15 9 16 15 13 8 -4z m-2737 -17 c-1 -13 -7 -32 -14
-43 -10 -18 -11 -17 -9 12 1 18 6 33 10 33 5 0 5 5 2 10 -3 6 -2 10 4 10 5 0
9 -10 7 -22z m31 3 c0 -11 -5 -18 -9 -15 -4 3 -5 11 -1 19 7 21 12 19 10 -4z
m557 -14 c-3 -9 -16 -17 -28 -17 -17 0 -18 2 -6 10 11 7 11 10 2 10 -7 0 -10
5 -7 10 5 8 12 7 23 -2 14 -11 15 -10 8 7 -5 14 -4 17 4 9 6 -6 8 -18 4 -27z
m1466 7 c0 -14 -4 -23 -9 -20 -5 3 -7 15 -4 26 7 28 13 25 13 -6z m-1707 2 c4
-9 -2 -12 -16 -11 -12 1 -33 4 -47 5 -19 2 -15 5 15 10 22 4 41 8 41 9 1 0 4
-5 7 -13z m-423 -31 c0 -5 -5 -3 -10 5 -5 8 -10 20 -10 25 0 6 5 3 10 -5 5 -8
10 -19 10 -25z m1987 20 c-5 -13 -67 -19 -67 -6 0 12 18 18 47 17 13 -1 22 -5
20 -11z m-252 -42 c-9 -37 -18 -20 -9 19 4 18 9 27 11 20 3 -7 2 -24 -2 -39z
m166 24 c-13 -13 -26 -3 -16 12 3 6 11 8 17 5 6 -4 6 -10 -1 -17z m539 -17
c13 -18 17 -30 9 -30 -9 0 -8 -4 1 -15 7 -8 11 -15 9 -16 -31 -6 -38 -6 -33 2
3 5 1 9 -4 9 -5 0 -15 12 -23 28 -7 15 -15 30 -17 34 -2 3 7 4 20 1 18 -4 20
-3 8 6 -9 6 -10 11 -3 11 6 0 21 -13 33 -30z m-2466 -33 c-4 -26 -10 -44 -14
-42 -4 2 -3 25 3 50 13 57 19 53 11 -8z m116 -3 c-7 -7 -16 -14 -21 -14 -12 0
1 53 15 62 16 11 20 -30 6 -48z m1774 47 c4 -5 -3 -7 -14 -4 -12 3 -22 -1 -26
-11 -3 -9 -10 -16 -15 -16 -6 0 -5 9 1 20 11 20 44 27 54 11z m-1700 -25 c-3
-9 -10 -16 -15 -16 -5 0 -9 -4 -9 -10 0 -5 6 -10 13 -10 9 0 13 -13 11 -42 -2
-39 -1 -41 12 -23 8 10 14 14 14 8 0 -15 -25 -34 -34 -26 -4 4 -4 0 0 -10 3
-10 1 -17 -5 -17 -6 0 -11 4 -11 9 0 5 -3 17 -7 27 -4 11 -3 15 5 10 6 -3 13
-2 17 4 3 5 -2 10 -12 10 -14 0 -15 2 -5 9 11 7 11 9 -1 14 -18 7 -12 42 12
67 19 20 24 19 15 -4z m212 -1 c10 -8 14 -15 7 -15 -19 0 -43 11 -43 21 0 13
14 11 36 -6z m1735 -45 c5 0 10 12 10 28 l2 27 4 -28 c4 -22 8 -27 21 -21 9 4
40 9 67 11 l50 3 -50 -20 c-68 -27 -145 -37 -145 -19 0 12 -2 12 -9 0 -5 -7
-6 -22 -3 -34 4 -16 2 -19 -13 -13 -27 10 -65 -19 -66 -52 -1 -17 -3 -20 -6
-9 -2 9 -9 17 -14 17 -13 0 -53 -40 -96 -97 -31 -41 -34 -48 -22 -69 7 -13 10
-27 7 -30 -4 -3 -9 4 -13 15 -6 20 -25 30 -25 13 0 -4 -10 -13 -22 -21 -21
-13 -22 -13 -10 2 11 13 10 16 -5 20 -15 4 -14 5 3 6 24 1 59 46 49 61 -16 26
-63 6 -79 -35 -5 -12 -10 -15 -13 -8 -7 18 16 53 40 62 12 5 33 4 46 -1 29
-10 39 -3 25 19 -17 27 -64 35 -106 18 -21 -8 -38 -12 -38 -9 0 4 -7 1 -15 -6
-20 -17 -32 -5 -15 15 7 9 29 15 52 15 21 0 37 4 34 9 -8 12 74 -7 91 -21 19
-15 17 13 -2 38 -22 29 -18 50 5 21 11 -14 20 -30 20 -36 0 -6 5 -11 10 -11 6
0 8 10 4 24 -6 27 11 45 20 20 5 -13 14 -10 52 18 41 29 45 36 42 65 -2 18 0
33 4 33 4 0 8 -6 8 -14 0 -23 19 -29 36 -12 19 19 31 20 37 4 3 -7 6 5 8 27 2
38 2 38 6 8 2 -18 8 -33 14 -33z m-197 10 c7 -24 6 -24 -8 -6 -9 11 -16 27
-16 35 0 21 16 2 24 -29z m-137 -13 c-6 -19 -25 -19 -36 1 -9 17 -7 18 15 14
14 -2 23 -9 21 -15z m-1582 -17 c3 -6 -1 -7 -9 -4 -18 7 -21 14 -7 14 6 0 13
-4 16 -10z m2492 -5 c0 -8 -4 -12 -9 -9 -5 3 -6 10 -3 15 9 13 12 11 12 -6z
m-2661 -20 c-3 -8 0 -15 7 -16 9 0 9 -2 0 -6 -10 -3 -10 -10 -2 -26 9 -17 9
-19 0 -11 -17 16 -25 74 -11 74 7 0 10 -7 6 -15z m93 -22 c11 -41 1 -63 -29
-63 -23 0 -25 58 -3 82 9 10 17 18 19 18 2 0 8 -17 13 -37z m1721 22 c0 -8 -7
-15 -15 -15 -9 0 -12 6 -9 15 4 8 10 15 15 15 5 0 9 -7 9 -15z m64 -1 c3 -8 2
-12 -4 -9 -6 3 -10 10 -10 16 0 14 7 11 14 -7z m-1684 2 c0 -3 -4 -8 -10 -11
-5 -3 -10 -1 -10 4 0 6 5 11 10 11 6 0 10 -2 10 -4z m2419 -29 c21 5 23 3 18
-16 -4 -17 0 -24 19 -31 13 -5 24 -15 24 -21 0 -8 4 -8 15 1 12 10 15 10 15
-4 0 -9 5 -16 11 -16 5 0 7 5 3 12 -4 7 -3 8 5 4 18 -11 -3 -32 -31 -31 -13 1
-30 5 -38 10 -7 5 -25 10 -39 12 -62 7 -90 16 -84 26 3 6 1 7 -5 3 -7 -4 -12
-13 -12 -21 0 -8 -7 -11 -19 -8 -26 7 -56 -11 -58 -35 -1 -14 9 -25 32 -36 19
-9 37 -21 40 -26 4 -6 11 -8 16 -5 5 4 9 -4 9 -17 0 -18 2 -20 10 -8 7 12 12
12 21 3 19 -19 20 -46 3 -39 -8 3 -13 2 -10 -2 3 -5 -4 -21 -15 -38 -10 -16
-19 -24 -19 -19 0 6 -16 11 -36 12 -23 1 -34 -2 -31 -10 3 -7 10 -11 16 -10 6
2 11 -2 11 -7 0 -5 -4 -10 -10 -10 -5 0 -10 -5 -10 -11 0 -6 10 -8 23 -5 12 3
5 -2 -15 -11 -21 -8 -38 -20 -38 -24 0 -5 -5 -9 -11 -9 -6 0 -9 9 -6 20 3 11
1 18 -4 14 -5 -3 -9 0 -9 5 0 6 5 11 10 11 6 0 10 5 10 12 0 9 -3 9 -12 0 -18
-18 -25 -15 -32 13 -6 25 -7 25 -30 8 -19 -14 -22 -25 -19 -53 3 -19 10 -41
15 -47 7 -9 7 -13 -1 -13 -15 0 -14 -63 1 -78 8 -8 5 -14 -16 -22 -19 -7 -26
-15 -22 -25 19 -46 19 -50 6 -38 -11 10 -17 9 -32 -4 -11 -10 -18 -12 -18 -4
0 6 -8 11 -17 9 -10 -2 -17 3 -15 10 1 6 -4 12 -12 12 -9 0 -13 -7 -11 -20 3
-14 -2 -20 -15 -20 -10 0 -21 -4 -24 -8 -3 -5 5 -8 17 -8 13 1 22 -5 23 -17 1
-12 1 -13 -3 -2 -6 21 -23 19 -23 -3 0 -18 -44 -65 -53 -56 -2 2 -12 -5 -21
-15 -10 -11 -23 -18 -30 -15 -8 3 -12 -10 -13 -38 -2 -29 1 -38 7 -28 5 8 6
18 4 22 -3 4 0 8 7 8 7 0 10 3 6 6 -11 11 23 36 39 30 17 -7 13 -32 -5 -29
-15 4 -14 -14 2 -21 6 -3 1 -3 -12 0 -20 5 -23 3 -18 -15 3 -12 0 -19 -6 -18
-11 2 -13 -4 -16 -38 0 -8 -6 -15 -12 -15 -5 0 -8 3 -6 8 3 4 0 16 -4 27 -9
18 -9 18 -5 -3 3 -14 -3 -31 -14 -42 -10 -10 -17 -20 -15 -22 2 -2 -6 -10 -18
-17 -18 -11 -20 -11 -10 0 10 10 8 18 -10 38 -12 13 -16 21 -9 17 9 -6 12 -2
10 10 -4 25 -28 43 -48 37 -13 -4 -13 -4 0 6 8 6 13 11 10 12 -3 0 -12 2 -22
4 -27 5 -75 46 -87 74 l-11 26 23 -27 c26 -32 52 -38 44 -10 -13 42 -33 88
-41 93 -5 4 -5 12 -2 18 4 6 3 11 -2 11 -6 0 -13 7 -16 16 -5 14 -4 15 8 5 19
-16 49 14 44 44 -4 21 26 52 45 47 4 -1 7 3 7 9 0 6 6 17 14 24 10 11 16 11
26 2 10 -10 12 -7 7 11 -3 12 -1 22 4 22 5 0 9 -5 9 -10 0 -6 6 -5 14 2 10 9
11 15 2 20 -8 6 -8 8 0 8 6 0 12 12 12 27 0 22 -2 23 -10 9 -8 -13 -13 -15
-24 -5 -7 6 -21 9 -29 5 -21 -8 -19 21 2 33 10 5 14 13 10 17 -4 5 -16 3 -26
-3 -10 -6 -24 -8 -31 -3 -9 6 -8 10 6 19 16 9 17 12 4 21 -8 5 -10 10 -5 10 6
0 3 5 -5 10 -13 9 -13 10 1 10 8 0 20 -5 27 -12 9 -9 12 -9 12 0 0 7 -4 12
-10 12 -5 0 -10 9 -10 20 0 14 5 18 18 13 15 -6 15 -5 3 10 -9 11 -10 17 -2
17 11 0 15 -13 12 -37 -1 -7 3 -13 10 -13 8 0 9 12 4 36 -5 31 -4 36 9 31 11
-4 16 -1 17 11 0 10 3 12 6 5 7 -18 23 -16 23 3 0 13 3 14 14 4 12 -9 16 -5
22 24 7 38 24 59 24 31 0 -9 12 -31 26 -50 l25 -34 -24 -13 c-20 -11 -23 -17
-16 -37 6 -15 14 -21 25 -17 8 3 12 2 9 -3 -3 -5 -1 -13 5 -16 6 -4 10 -3 9 2
-1 4 -1 17 0 28 2 19 3 19 15 3 7 -10 16 -15 19 -12 9 9 59 -5 53 -15 -10 -16
52 -6 71 11 15 14 20 14 31 2 7 -8 10 -19 6 -25 -4 -8 -9 -7 -15 2 -6 10 -11
11 -19 3 -20 -20 22 -22 65 -3 22 10 34 19 28 19 -7 0 -13 9 -13 20 0 12 -10
31 -21 43 -12 12 -19 16 -15 10 4 -7 2 -21 -3 -30 -7 -12 -10 -13 -11 -4 0 7
-6 11 -15 7 -18 -6 -18 -5 -5 28 6 17 6 26 0 26 -6 0 -10 -9 -10 -19 0 -28
-11 -31 -45 -15 -22 10 -24 13 -8 10 13 -2 26 0 29 5 5 9 -2 10 -69 13 -26 1
-33 5 -29 18 4 18 32 33 32 17 0 -6 8 -5 21 2 17 9 23 8 30 -2 9 -14 10 -12
13 30 1 8 16 15 39 18 26 2 36 0 35 -9 -2 -7 5 -13 14 -13 9 0 20 -4 24 -8 10
-9 25 -9 22 1 -2 4 9 20 25 35 15 15 27 32 27 36 0 5 7 12 16 15 12 4 15 2 11
-9 -4 -8 -2 -17 3 -20 12 -7 61 54 54 68 -3 7 3 2 13 -10 13 -17 24 -21 42
-16z m-839 -14 c0 -26 -16 -12 -18 15 -1 21 0 23 8 12 5 -8 10 -21 10 -27z
m-1153 5 c-3 -8 -6 -5 -6 6 -1 11 2 17 5 13 3 -3 4 -12 1 -19z m1898 -16 c-17
-15 -18 -15 -6 0 7 9 9 23 5 30 -6 10 -4 11 7 0 11 -10 10 -15 -6 -30z m282
26 c-2 -7 1 -17 7 -23 6 -5 9 -9 7 -8 -2 2 -10 -2 -18 -9 -11 -8 -12 -7 -8 5
4 8 1 18 -5 22 -9 6 -9 10 1 16 19 12 21 11 16 -3z m-2437 -29 c0 -5 4 -8 9
-4 19 11 21 -15 2 -34 -11 -11 -17 -22 -15 -24 3 -3 0 -8 -7 -13 -8 -4 -10 -3
-5 4 4 7 2 12 -4 12 -6 0 -8 -11 -6 -25 5 -29 -10 -43 -27 -25 -9 10 -9 11 3
5 10 -6 9 -1 -4 13 -10 11 -16 27 -14 34 3 7 -2 18 -11 25 -12 9 -13 15 -5 23
17 17 49 8 49 -14 0 -11 6 -21 12 -23 9 -3 11 4 7 26 -4 20 -2 31 5 31 6 0 11
-5 11 -11z m1802 -2 c-15 -7 -26 -7 -33 0 -7 7 1 10 23 10 31 1 32 0 10 -10z
m-132 -7 c0 -5 -5 -10 -12 -10 -7 0 -23 -12 -36 -27 l-23 -28 7 25 c3 14 11
31 16 38 12 14 48 16 48 2z m65 0 c-3 -5 -10 -10 -16 -10 -5 0 -9 5 -9 10 0 6
7 10 16 10 8 0 12 -4 9 -10z m-2085 -22 c0 -5 -4 -7 -9 -4 -5 4 -12 0 -14 -6
-3 -7 -6 -3 -6 9 -1 16 3 21 14 17 8 -4 15 -10 15 -16z m533 -29 c4 -14 0 -19
-16 -20 -17 -1 -18 -2 -4 -6 20 -5 23 -43 3 -43 -18 0 -28 40 -14 57 8 10 8
21 -1 41 -12 26 -12 26 7 9 11 -10 22 -27 25 -38z m17 20 c15 -28 5 -23 -15 7
-9 15 -12 23 -6 20 6 -4 16 -16 21 -27z m-131 -56 c4 -132 4 -140 15 -140 12
0 15 61 3 73 -4 4 -7 28 -6 53 l0 46 15 -39 c7 -21 11 -43 7 -50 -3 -6 -3 -8
2 -4 4 4 16 3 25 -2 22 -12 32 -77 13 -84 -7 -3 -13 1 -13 9 0 7 -4 16 -9 19
-4 3 -6 -6 -3 -20 4 -23 2 -25 -24 -19 -26 6 -27 5 -11 -8 18 -15 24 -67 8
-67 -13 0 -34 67 -35 110 -1 19 -5 41 -10 49 -6 10 -6 16 2 19 8 2 8 11 1 29
-13 34 -8 103 7 103 7 0 12 -26 13 -77z m179 51 c4 2 8 -18 9 -45 1 -37 -3
-49 -14 -49 -8 0 -11 4 -8 10 3 5 2 18 -4 27 -5 10 -7 32 -3 48 3 17 7 24 10
17 2 -6 7 -10 10 -8z m1560 -9 c-3 -3 -9 2 -12 12 -6 14 -5 15 5 6 7 -7 10
-15 7 -18z m-1784 -70 c-1 -42 -4 -78 -8 -82 -3 -3 0 -13 7 -22 19 -22 40
-116 32 -141 -5 -17 -2 -20 19 -20 20 0 26 -5 26 -21 0 -16 4 -19 20 -14 11 4
20 2 20 -4 0 -6 -3 -10 -7 -10 -21 3 -24 -3 -12 -18 12 -14 12 -16 -1 -10 -11
6 -11 5 1 -4 13 -9 14 -17 5 -35 -6 -13 -18 -23 -26 -21 -8 1 -14 -4 -12 -10
1 -7 -2 -13 -8 -13 -5 0 -10 18 -10 40 0 22 5 40 11 40 5 0 7 5 4 10 -4 7 -14
2 -26 -11 -10 -12 -19 -17 -19 -11 0 6 5 14 10 17 6 4 8 15 5 26 -4 11 -2 19
4 19 6 0 11 5 11 10 0 6 -6 10 -14 10 -18 0 -30 -31 -15 -40 8 -6 8 -9 0 -14
-6 -4 -15 3 -20 16 -6 13 -10 17 -10 10 -1 -7 4 -22 10 -33 10 -19 9 -19 -10
-9 -12 6 -21 7 -21 3 -1 -4 -7 7 -15 25 -8 17 -19 32 -25 32 -7 0 -4 -13 8
-32 11 -20 18 -48 17 -71 -1 -21 2 -40 7 -43 11 -7 10 -24 -2 -24 -5 0 -10 7
-10 15 0 8 -4 15 -10 15 -19 0 -10 -32 10 -37 15 -4 19 -11 15 -24 -5 -14 -1
-19 11 -19 13 0 14 -3 5 -13 -6 -8 -8 -17 -4 -20 12 -12 23 -7 23 10 0 9 3 13
7 10 3 -4 1 -18 -6 -31 l-13 -24 -36 36 c-26 25 -36 42 -35 61 2 23 2 24 -6 6
-7 -14 -10 -15 -10 -5 -1 13 -2 13 -11 0 -10 -17 -12 -16 -32 30 -22 48 -27
106 -8 102 11 -3 11 0 1 12 -16 19 2 30 36 21 23 -5 24 -4 10 10 -9 8 -21 15
-28 15 -9 0 -8 4 1 15 7 8 9 15 4 15 -9 0 -11 60 -2 76 2 5 11 29 19 54 l14
45 7 -40 c5 -22 10 -47 12 -55 2 -8 -1 -26 -5 -38 -10 -27 -1 -52 11 -32 4 7
6 35 3 64 -6 75 -4 108 8 122 6 7 8 23 5 36 -3 13 -3 17 0 11 11 -25 26 -13
22 17 -3 17 -1 30 3 30 4 0 11 9 14 20 13 40 20 18 19 -55z m108 29 c7 -58
-15 -38 -27 25 -2 13 1 18 10 15 7 -3 15 -21 17 -40z m2089 29 c12 -14 12 -17
0 -21 -9 -3 3 -12 28 -22 39 -15 41 -17 25 -31 -15 -12 -17 -12 -9 0 6 11 4
13 -8 8 -9 -3 -23 0 -31 8 -8 8 -22 15 -30 15 -18 0 -19 4 -10 38 7 26 17 28
35 5z m-46 -3 c3 -5 1 -10 -4 -10 -6 0 -11 5 -11 10 0 6 2 10 4 10 3 0 8 -4
11 -10z m-1961 -56 c-5 -20 -2 -24 15 -24 15 0 21 -6 21 -21 0 -11 -4 -17 -10
-14 -6 3 -10 -5 -10 -18 0 -14 -7 -27 -14 -30 -10 -4 -13 -1 -9 9 3 10 -1 17
-14 20 -10 3 -24 19 -30 35 -10 26 -9 29 8 29 16 0 18 -5 13 -27 -6 -27 -6
-27 9 -8 11 14 12 26 6 43 -13 33 -11 42 6 36 10 -4 13 -14 9 -30z m2139 18
c-12 -12 -20 -14 -25 -8 -4 6 0 14 10 18 29 11 33 9 15 -10z m-827 -59 c-14
-14 -27 15 -20 43 l8 29 9 -33 c6 -18 7 -35 3 -39z m759 -22 c-3 -6 -11 -11
-16 -11 -5 0 -4 6 3 14 14 16 24 13 13 -3z m50 9 c-3 -5 -12 -10 -18 -10 -7 0
-6 4 3 10 19 12 23 12 15 0z m-2685 -4 c0 -3 -4 -8 -10 -11 -5 -3 -10 -1 -10
4 0 6 5 11 10 11 6 0 10 -2 10 -4z m1350 0 c0 -2 -7 -6 -15 -10 -8 -3 -15 -1
-15 4 0 6 7 10 15 10 8 0 15 -2 15 -4z m55 -6 c-3 -5 -11 -10 -16 -10 -6 0 -7
5 -4 10 3 6 11 10 16 10 6 0 7 -4 4 -10z m-1385 -20 c0 -5 -5 -10 -11 -10 -5
0 -7 5 -4 10 3 6 8 10 11 10 2 0 4 -4 4 -10z m2344 -5 c3 -8 1 -15 -4 -15 -6
0 -10 7 -10 15 0 8 2 15 4 15 2 0 6 -7 10 -15z m-661 -39 c-17 -23 -33 -25
-33 -5 0 8 28 24 48 28 2 1 -5 -10 -15 -23z m-1158 4 c3 -6 -1 -7 -9 -4 -18 7
-21 14 -7 14 6 0 13 -4 16 -10z m2031 -12 c5 -8 2 -9 -9 -5 -10 3 -17 2 -17
-2 0 -5 6 -11 13 -14 6 -3 2 -4 -10 -4 -22 1 -26 16 -8 29 14 11 23 10 31 -4z
m-2006 -22 c0 -2 -7 -7 -16 -10 -8 -3 -12 -2 -9 4 6 10 25 14 25 6z m1920 -56
c0 -5 -9 -10 -21 -10 -11 0 -18 -4 -15 -8 2 -4 1 -14 -5 -22 -6 -11 -9 -8 -9
12 0 20 6 28 23 31 12 2 23 5 25 6 1 0 2 -3 2 -9z m30 -10 c0 -5 -5 -10 -11
-10 -5 0 -7 5 -4 10 3 6 8 10 11 10 2 0 4 -4 4 -10z m-2093 -22 c-3 -8 -6 -5
-6 6 -1 11 2 17 5 13 3 -3 4 -12 1 -19z m-237 -2 c0 -3 -4 -8 -10 -11 -5 -3
-10 -1 -10 4 0 6 5 11 10 11 6 0 10 -2 10 -4z m2310 -6 c0 -5 -2 -10 -4 -10
-3 0 -8 5 -11 10 -3 6 -1 10 4 10 6 0 11 -4 11 -10z m24 -15 c3 -8 1 -15 -4
-15 -6 0 -10 7 -10 15 0 8 2 15 4 15 2 0 6 -7 10 -15z m-74 -25 c0 -5 -2 -10
-4 -10 -3 0 -8 5 -11 10 -3 6 -1 10 4 10 6 0 11 -4 11 -10z m28 -10 c-7 -11
-15 -15 -17 -9 -2 6 3 15 10 20 20 12 21 11 7 -11z m-1003 -10 c-3 -5 -10 -10
-16 -10 -5 0 -9 5 -9 10 0 6 7 10 16 10 8 0 12 -4 9 -10z m862 -12 c-3 -8 -6
-5 -6 6 -1 11 2 17 5 13 3 -3 4 -12 1 -19z m88 12 c3 -5 1 -10 -4 -10 -6 0
-11 5 -11 10 0 6 2 10 4 10 3 0 8 -4 11 -10z m75 -10 c0 -5 -2 -10 -4 -10 -3
0 -8 5 -11 10 -3 6 -1 10 4 10 6 0 11 -4 11 -10z m-1266 -15 c-7 -18 -36 -28
-58 -19 -24 9 -10 22 19 16 15 -2 25 0 25 7 0 6 4 11 10 11 5 0 7 -7 4 -15z
m116 6 c0 -13 -36 -20 -62 -13 -23 7 -21 7 55 21 4 0 7 -3 7 -8z m-980 -40 c0
-5 3 -16 6 -25 4 -11 0 -16 -14 -16 -15 0 -18 5 -14 25 4 23 22 36 22 16z
m1133 -2 c-13 -13 -71 -15 -84 -2 -6 6 8 10 42 11 35 1 49 -2 42 -9z m273 -3
c10 -8 16 -17 13 -20 -3 -4 -17 2 -30 13 -27 23 -13 28 17 7z m77 1 c3 -7 -3
-13 -14 -13 -13 0 -15 3 -7 13 6 7 12 13 13 13 2 0 5 -6 8 -13z m-119 -6 c8
-12 -14 -19 -38 -13 -20 5 -20 5 0 13 26 10 32 10 38 0z m-404 -10 c0 -10 -24
-21 -43 -21 -7 0 -3 7 7 15 22 17 36 19 36 6z m260 -21 c0 -4 -7 -10 -15 -14
-19 -7 -51 4 -36 13 16 10 51 11 51 1z m-1210 -14 c0 -3 -4 -8 -10 -11 -5 -3
-10 -1 -10 4 0 6 5 11 10 11 6 0 10 -2 10 -4z m1063 -27 c-6 -6 -23 -9 -39 -7
l-29 4 35 10 c38 12 49 9 33 -7z m1040 -3 c-4 -17 3 -29 22 -45 32 -24 21 -29
-13 -5 -21 14 -30 53 -15 67 10 11 11 9 6 -17z m273 -63 c-7 -7 -36 60 -35 79
0 7 10 -7 21 -30 11 -24 17 -46 14 -49z m-1116 58 c0 -13 -34 -19 -67 -13 -27
6 -26 7 12 13 22 3 43 7 48 8 4 0 7 -3 7 -8z m171 -8 c13 -16 12 -17 -3 -4
-10 7 -18 15 -18 17 0 8 8 3 21 -13z m-1661 -3 c0 -5 -4 -10 -10 -10 -5 0 -10
5 -10 10 0 6 5 10 10 10 6 0 10 -4 10 -10z m90 -33 c0 -16 -18 3 -23 25 -6 22
-5 22 8 4 8 -11 15 -24 15 -29z m1509 6 c-12 -14 -35 -7 -43 12 -3 9 1 12 15
10 10 -2 19 2 19 8 0 7 4 6 10 -3 5 -9 5 -19 -1 -27z m901 26 c0 -5 -11 -9
-25 -9 -14 0 -25 4 -25 9 0 5 11 9 25 9 14 0 25 -4 25 -9z m-2684 -11 c5 -8 0
-9 -14 -6 -12 4 -22 2 -22 -2 0 -5 8 -11 18 -13 12 -3 13 -5 2 -6 -8 0 -22 4
-30 9 -13 9 -13 11 0 20 20 13 37 13 46 -2z m226 -20 c-9 -9 -15 -9 -24 1 -10
11 -10 13 0 7 7 -5 12 -1 12 10 0 14 3 15 12 6 9 -9 9 -15 0 -24z m2488 4 c0
-15 -2 -15 -10 -2 -13 20 -13 33 0 25 6 -3 10 -14 10 -23z m-2660 1 c0 -16
-16 -30 -32 -30 -9 0 -14 6 -11 13 2 7 12 10 20 7 11 -4 14 -2 9 5 -4 7 -2 12
3 12 6 0 11 -3 11 -7z m256 -32 c-9 -12 -7 -13 12 -9 16 5 25 1 29 -9 8 -22
-19 -36 -33 -18 -15 20 -27 19 -20 -2 6 -17 5 -17 -7 -1 -8 10 -16 15 -19 12
-3 -2 -8 5 -11 17 -5 20 -4 20 12 4 17 -14 19 -14 24 0 4 8 3 23 0 32 -6 15
-5 16 9 3 12 -12 13 -18 4 -29z m-233 9 c-3 -12 -8 -19 -11 -16 -5 6 5 36 12
36 2 0 2 -9 -1 -20z m1124 14 c-3 -3 -12 -4 -19 -1 -8 3 -5 6 6 6 11 1 17 -2
13 -5z m123 -6 c0 -13 -20 -19 -40 -13 -30 9 -24 20 10 20 17 0 30 -3 30 -7z
m380 -8 c-11 -21 -19 -24 -44 -14 -26 10 -18 22 17 27 17 2 33 5 35 5 1 1 -2
-7 -8 -18z m-1526 -28 c-7 -35 -21 -49 -35 -35 -13 13 -19 63 -8 63 5 0 9 -7
9 -15 0 -13 2 -14 14 -3 8 7 11 17 8 22 -3 5 0 6 6 2 6 -3 8 -19 6 -34z m2663
32 c-3 -3 -12 -4 -19 -1 -8 3 -5 6 6 6 11 1 17 -2 13 -5z m-2014 -40 c-3 -8 0
-21 7 -30 10 -11 10 -18 2 -26 -13 -13 -16 -5 -26 49 -4 25 -2 31 9 27 7 -3
11 -12 8 -20z m-793 12 c0 -3 -4 -8 -10 -11 -5 -3 -10 -1 -10 4 0 6 5 11 10
11 6 0 10 -2 10 -4z m88 -72 c-13 -13 -15 -10 -16 32 l0 47 15 -32 c14 -29 14
-34 1 -47z m2259 34 c-3 -23 -1 -51 5 -61 6 -12 6 -17 0 -13 -5 3 -15 19 -22
36 -10 25 -10 36 0 56 19 35 23 30 17 -18z m-782 17 c0 -17 -51 -17 -65 0 -12
15 -10 16 26 13 21 -2 39 -7 39 -13z m-335 -25 c0 -5 -5 -10 -11 -10 -5 0 -7
5 -4 10 3 6 8 10 11 10 2 0 4 -4 4 -10z m1363 3 c-27 -5 -36 -28 -21 -56 10
-20 10 -21 -5 -8 -32 26 -14 72 28 70 19 -2 19 -2 -2 -6z m-1163 -24 c0 -16
-20 -20 -41 -8 -16 8 -18 13 -9 19 14 9 50 1 50 -11z m424 -5 c3 -8 2 -12 -4
-9 -6 3 -10 10 -10 16 0 14 7 11 14 -7z m-225 -19 c6 3 19 1 28 -4 16 -9 16
-10 2 -11 -9 0 -20 -7 -23 -17 -6 -14 -11 -12 -36 12 -36 35 -39 52 -5 29 13
-8 29 -13 34 -9z m107 -21 c-6 -16 -42 -19 -51 -4 -3 6 2 13 12 17 10 3 22 14
28 22 8 14 10 14 13 -2 2 -10 1 -25 -2 -33z m-1631 26 c3 -5 1 -10 -4 -10 -6
0 -11 5 -11 10 0 6 2 10 4 10 3 0 8 -4 11 -10z m1770 -47 c4 -16 2 -23 -8 -23
-8 0 -22 10 -33 23 -10 12 -12 16 -4 10 21 -19 33 -16 27 8 -8 28 9 11 18 -18z
m-1065 12 c0 -8 -2 -15 -4 -15 -2 0 -6 7 -10 15 -3 8 -1 15 4 15 6 0 10 -7 10
-15z m30 -5 c0 -5 -5 -10 -11 -10 -5 0 -7 5 -4 10 3 6 8 10 11 10 2 0 4 -4 4
-10z m470 6 c0 -11 -19 -15 -25 -6 -3 5 1 10 9 10 9 0 16 -2 16 -4z m-70 -10
c0 -2 -7 -6 -15 -10 -8 -3 -15 -1 -15 4 0 6 7 10 15 10 8 0 15 -2 15 -4z
m1360 -24 c0 -15 -2 -15 -10 -2 -13 20 -13 33 0 25 6 -3 10 -14 10 -23z m-875
-1 c-7 -13 -36 -14 -62 -4 -13 6 -8 9 22 13 46 6 50 5 40 -9z m-870 -1 c3 -5
2 -10 -4 -10 -5 0 -13 5 -16 10 -3 6 -2 10 4 10 5 0 13 -4 16 -10z m1104 -95
c0 -11 -8 -1 -19 24 -11 24 -20 51 -19 60 1 22 37 -58 38 -84z m-352 52 c-19
-29 -49 -32 -71 -8 -18 20 -18 20 18 14 27 -4 37 -2 42 11 3 9 10 13 16 10 5
-4 3 -15 -5 -27z m1170 1 c-3 -7 -5 -2 -5 12 0 14 2 19 5 13 2 -7 2 -19 0 -25z
m-1065 -30 c25 -4 37 -28 13 -28 -17 0 -75 57 -75 74 0 5 9 -3 20 -17 11 -14
30 -27 42 -29z m-291 0 c19 12 19 11 9 -8 -6 -11 -18 -20 -26 -20 -23 0 -55
20 -49 30 4 6 14 5 25 -3 16 -9 24 -9 41 1z m799 -68 c0 -33 -15 -30 -26 5
-10 31 -9 33 8 24 10 -5 18 -18 18 -29z m-262 14 c6 3 12 -3 15 -13 7 -29 -19
-33 -37 -6 -20 30 -20 41 -1 25 8 -6 18 -9 23 -6z m627 -14 c-3 -5 -11 -10
-16 -10 -6 0 -7 5 -4 10 3 6 11 10 16 10 6 0 7 -4 4 -10z m-894 -22 c31 1 34
-4 20 -27 -7 -11 -14 -10 -40 5 -17 10 -31 22 -31 27 0 4 5 5 11 1 7 -4 25 -7
40 -6z m186 -30 c-3 -7 -5 -2 -5 12 0 14 2 19 5 13 2 -7 2 -19 0 -25z m123
-53 c16 -32 28 -60 26 -63 -5 -4 -66 112 -66 124 0 13 10 -2 40 -61z m-420 35
c0 -5 -2 -10 -4 -10 -3 0 -8 5 -11 10 -3 6 -1 10 4 10 6 0 11 -4 11 -10z m334
-44 c-5 -13 -9 -14 -14 -5 -11 16 0 43 12 31 5 -5 6 -17 2 -26z m-196 -7 c13
0 22 -5 22 -14 0 -19 -13 -19 -50 0 -32 17 -42 32 -12 20 9 -4 27 -7 40 -6z
m531 -23 c-3 -3 -11 5 -18 17 -13 21 -12 21 5 5 10 -10 16 -20 13 -22z m-1001
-62 c41 -26 37 -32 -6 -10 -15 8 -38 27 -52 42 -22 25 -22 26 -2 10 12 -11 39
-30 60 -42z m-48 -7 c0 -12 -58 24 -64 39 -3 7 11 2 29 -9 19 -12 34 -26 35
-30z m298 17 c34 -4 52 -11 52 -20 0 -8 -9 -14 -20 -14 -23 0 -107 38 -116 52
-4 6 1 6 13 0 11 -6 43 -14 71 -18z m-163 -24 c6 -4 23 -10 39 -14 15 -4 27
-9 24 -11 -7 -7 -93 17 -107 31 -12 11 -10 12 10 7 13 -3 29 -9 34 -13z
m-1054 -7 c7 -10 9 -15 5 -11 -5 4 -14 4 -20 -2 -8 -6 -12 -3 -12 11 0 24 9
24 27 2z m1149 8 c14 -4 20 -10 15 -13 -6 -3 -23 0 -40 7 -32 14 -17 18 25 6z
m360 -21 c0 -20 -24 -26 -60 -16 -22 5 -40 13 -40 16 0 3 23 5 50 5 28 0 50
-2 50 -5z m-1496 -31 c-3 -5 -1 -9 4 -9 5 0 12 -10 15 -22 6 -23 6 -23 -9 -3
-29 38 -36 55 -19 49 8 -3 12 -10 9 -15z m-107 -11 c-3 -8 -6 -5 -6 6 -1 11 2
17 5 13 3 -3 4 -12 1 -19z m1453 -17 c42 -28 100 -43 136 -37 28 6 33 4 28 -9
-9 -23 -70 -13 -137 21 -29 15 -62 32 -74 38 -13 6 -23 15 -23 19 0 8 28 -5
70 -32z m496 -58 c-10 -11 -40 15 -58 51 l-21 41 41 -45 c23 -24 40 -45 38
-47z m-1761 57 c3 -5 1 -10 -4 -10 -6 0 -11 5 -11 10 0 6 2 10 4 10 3 0 8 -4
11 -10z m-92 -29 c12 -25 12 -29 1 -24 -8 3 -14 13 -14 23 0 10 -6 21 -12 23
-9 4 -9 6 -1 6 6 1 18 -12 26 -28z m-64 -4 c0 -9 -2 -9 -5 0 -3 7 -13 9 -22 6
-14 -4 -14 -3 -2 5 16 12 30 7 29 -11z m271 13 c0 -5 -4 -10 -10 -10 -5 0 -10
5 -10 10 0 6 5 10 10 10 6 0 10 -4 10 -10z m-90 -8 c0 -4 -6 -14 -12 -21 -11
-10 -7 -11 16 -5 21 5 27 4 22 -5 -4 -6 -3 -11 3 -11 6 0 8 -7 4 -16 -5 -14
-7 -14 -17 3 -6 10 -19 17 -28 15 -19 -4 -25 13 -8 23 6 4 8 11 5 16 -4 5 -1
9 4 9 6 0 11 -4 11 -8z m80 -27 c0 -8 5 -15 10 -15 6 0 10 -7 10 -15 0 -8 -5
-15 -11 -15 -5 0 -7 5 -4 10 3 6 2 10 -4 10 -6 0 -15 9 -21 20 -9 16 -8 20 5
20 8 0 15 -7 15 -15z m-248 -17 c-7 -7 -12 -8 -12 -2 0 14 12 26 19 19 2 -3
-1 -11 -7 -17z m773 4 c-3 -3 -11 0 -18 7 -9 10 -8 11 6 5 10 -3 15 -9 12 -12z
m92 -8 c17 6 17 5 1 -8 -20 -15 -25 -31 -7 -20 7 4 10 1 7 -6 -2 -8 -9 -15
-15 -17 -10 -4 -17 11 -29 62 -5 19 -5 19 10 1 9 -12 22 -16 33 -12z m-1009
-9 c0 -23 -2 -24 -13 -8 -11 15 -6 31 11 33 1 0 2 -11 2 -25z m52 10 c0 -8 -4
-15 -10 -15 -5 0 -10 7 -10 15 0 8 5 15 10 15 6 0 10 -7 10 -15z m173 -14 c21
-8 27 -17 27 -41 0 -25 -4 -30 -25 -30 -16 0 -25 6 -25 15 0 8 9 15 20 15 26
0 16 24 -16 38 -13 7 -24 17 -24 24 0 10 2 10 8 1 4 -6 20 -16 35 -22z m228 6
c-10 -9 -11 -8 -5 6 3 10 9 15 12 12 3 -3 0 -11 -7 -18z m-535 5 c-3 -5 4 -21
15 -38 21 -33 24 -47 8 -42 -6 2 -10 7 -9 12 1 5 -3 12 -8 15 -16 10 -26 61
-12 61 6 0 9 -4 6 -8z m1134 1 c0 -14 -19 -38 -25 -32 -8 8 5 39 16 39 5 0 9
-3 9 -7z m30 -12 c-12 -24 -30 -36 -30 -21 0 13 22 39 33 40 4 0 3 -9 -3 -19z
m-760 -1 c0 -5 -5 -10 -11 -10 -5 0 -7 5 -4 10 3 6 8 10 11 10 2 0 4 -4 4 -10z
m610 1 c0 -5 8 -11 18 -14 11 -2 21 -13 24 -24 5 -17 1 -20 -28 -17 -18 1 -41
7 -51 13 -14 8 -11 9 17 4 l35 -6 -18 26 c-10 15 -13 27 -7 27 5 0 10 -4 10
-9z m-751 -73 c1 -5 -5 -8 -12 -8 -8 0 -13 15 -13 43 l-1 42 13 -35 c7 -19 13
-38 13 -42z m945 60 c-3 -4 -9 -8 -15 -8 -5 0 -9 4 -9 8 0 5 7 9 15 9 8 0 12
-4 9 -9z m-1137 -28 c10 0 13 -6 9 -16 -3 -9 -6 -26 -6 -39 0 -21 -3 -23 -29
-15 -16 4 -32 6 -34 3 -3 -2 -8 0 -11 5 -3 6 1 12 9 16 8 3 17 1 20 -4 4 -6
11 -10 17 -10 9 0 9 9 -8 75 -4 18 -4 18 6 3 6 -10 18 -18 27 -18z m58 20 c-3
-5 -1 -10 4 -10 6 0 11 -4 11 -9 0 -5 -9 -7 -20 -4 -24 6 -27 33 -4 33 8 0 12
-4 9 -10z m323 -12 c7 -7 12 -19 12 -27 0 -8 12 -28 28 -45 15 -17 20 -25 11
-18 -21 16 -31 4 -18 -20 6 -11 8 -31 5 -44 -4 -13 -2 -24 3 -24 5 0 11 8 13
18 4 15 16 19 65 20 65 1 72 -2 91 -36 13 -24 7 -47 -6 -25 -13 20 -59 34 -69
20 -17 -23 -8 -42 26 -53 23 -7 30 -13 20 -17 -8 -4 -4 -4 9 -1 13 3 30 0 39
-8 11 -8 14 -9 10 -1 -6 9 1 9 25 -1 64 -26 78 -28 78 -12 0 9 5 16 11 16 5 0
8 4 4 9 -3 5 -2 12 3 15 4 2 8 -6 8 -20 0 -13 -4 -24 -9 -24 -4 0 -6 -4 -2 -9
3 -6 -10 -13 -30 -17 -19 -3 -35 -10 -35 -15 0 -5 -6 -9 -13 -9 -7 0 -30 -9
-52 -20 -47 -24 -55 -25 -55 -5 0 8 11 17 25 21 35 9 31 22 -5 20 -16 0 -30
-3 -30 -6 0 -3 -18 -6 -41 -7 -32 -2 -40 0 -36 12 4 10 1 12 -10 8 -9 -4 -21
1 -29 11 -12 17 -54 15 -54 -3 0 -13 99 -81 119 -81 11 0 23 -5 27 -12 5 -8 2
-9 -11 -5 -9 4 -25 2 -33 -5 -13 -11 -14 -11 -7 1 5 10 4 12 -3 7 -7 -4 -12
-14 -12 -22 0 -8 -7 -14 -15 -14 -7 0 -19 -8 -24 -17 -9 -16 -12 -16 -21 -3
-6 10 -10 11 -10 3 0 -7 -10 -13 -22 -13 -21 1 -22 2 -5 14 9 7 17 25 17 40 0
14 5 26 10 26 6 0 10 -3 10 -8 0 -4 9 -13 19 -19 17 -11 20 -10 18 7 -1 10 -5
16 -9 14 -16 -10 -29 7 -17 22 16 19 -5 18 -25 -1 -8 -8 -22 -15 -31 -15 -9 0
-14 -4 -11 -9 7 -11 -24 -24 -33 -15 -3 4 0 9 7 11 6 3 10 8 7 12 -2 5 -7 32
-10 62 -3 30 -6 62 -7 72 -2 13 8 22 36 32 36 13 55 29 56 48 0 4 -4 7 -10 7
-5 0 -10 -6 -10 -12 0 -15 -49 -40 -61 -32 -5 3 -9 0 -9 -5 0 -17 -17 -13 -24
5 -3 8 -2 12 3 9 5 -3 12 -1 16 5 3 5 -1 10 -10 10 -9 0 -13 5 -10 10 10 16
23 12 30 -11 7 -20 8 -20 26 -3 15 13 16 19 7 25 -9 6 -8 13 6 28 15 17 16 23
6 36 -7 8 -16 12 -21 9 -5 -3 -9 0 -9 5 0 10 5 12 25 11 12 -1 31 25 31 42 0
15 -9 18 -46 19 -34 0 -40 2 -25 9 29 13 59 12 73 -2z m1382 -17 c0 -14 -5
-18 -20 -14 -23 6 -26 19 -7 26 22 9 27 7 27 -12z m300 -1 c6 -11 7 -20 2 -20
-6 0 -12 9 -15 20 -3 11 -3 20 -1 20 2 0 8 -9 14 -20z m-1933 -15 c0 -8 -4
-12 -9 -9 -5 3 -6 10 -3 15 9 13 12 11 12 -6z m224 1 c5 3 9 0 9 -6 0 -15 -23
-7 -26 8 -1 7 0 8 3 2 2 -5 9 -8 14 -4z m599 -29 c0 -5 -4 -6 -9 -2 -5 3 -12
-3 -16 -14 -3 -11 -13 -22 -21 -25 -8 -3 -12 -11 -8 -17 5 -8 9 -8 14 1 10 16
31 4 24 -14 -3 -8 -16 -13 -30 -11 -13 1 -24 -1 -24 -5 0 -4 -7 -11 -16 -14
-14 -5 -15 -4 -4 9 7 8 8 15 3 15 -5 0 -15 -11 -21 -25 -6 -14 -17 -26 -24
-27 -41 -4 -75 -2 -71 5 3 5 16 7 29 4 19 -3 24 0 24 17 0 12 -3 16 -8 10 -4
-6 -22 -15 -40 -19 -23 -5 -32 -11 -28 -21 3 -8 2 -14 -3 -14 -5 0 -12 11 -15
25 -4 14 -11 25 -17 25 -6 0 -7 -4 -4 -10 4 -6 -7 -10 -24 -10 -21 0 -31 5
-31 15 0 8 8 15 17 15 13 0 14 3 5 12 -21 21 -13 32 8 13 21 -19 21 -19 6 28
-5 16 -6 16 -26 0 -11 -10 -20 -23 -20 -30 0 -15 -9 -16 -29 -4 -11 7 -9 14
11 34 14 14 23 29 19 32 -3 4 10 1 29 -7 19 -8 35 -22 35 -31 0 -8 4 -19 8
-23 4 -4 7 -2 7 5 0 7 5 9 13 4 7 -4 5 4 -5 18 -16 25 -15 26 14 37 24 9 33 8
45 -3 17 -17 29 -19 38 -5 3 6 21 10 38 10 18 1 46 7 62 14 29 12 44 7 45 -17z
m173 8 c16 5 18 4 8 -3 -11 -8 -11 -10 0 -15 8 -3 5 -6 -8 -6 -12 -1 -27 8
-33 18 -13 26 -13 41 1 18 7 -12 17 -16 32 -12z m-118 5 c4 -6 -1 -7 -12 -3
-15 5 -16 3 -5 -8 20 -22 13 -30 -8 -9 -11 11 -20 22 -20 25 0 9 39 5 45 -5z
m1105 0 c0 -5 -4 -10 -9 -10 -6 0 -13 5 -16 10 -3 6 1 10 9 10 9 0 16 -4 16
-10z m-1620 -4 c0 -3 -4 -8 -10 -11 -5 -3 -10 -1 -10 4 0 6 5 11 10 11 6 0 10
-2 10 -4z m-640 -16 c0 -5 -2 -10 -4 -10 -3 0 -8 5 -11 10 -3 6 -1 10 4 10 6
0 11 -4 11 -10z m408 -15 c-1 -14 -6 -25 -11 -25 -4 0 -5 -6 -1 -12 5 -9 4
-10 -4 -3 -6 6 -14 22 -17 38 -6 23 -4 27 14 27 16 0 20 -6 19 -25z m-58 0 c0
-9 -6 -12 -17 -8 -11 4 -14 3 -9 -5 8 -13 -6 -17 -17 -5 -7 6 21 32 36 33 4 0
7 -7 7 -15z m-170 -5 c0 -5 -2 -10 -4 -10 -3 0 -8 5 -11 10 -3 6 -1 10 4 10 6
0 11 -4 11 -10z m-72 -27 c-2 -14 -9 -29 -17 -31 -10 -3 -12 0 -8 11 3 9 2 19
-4 22 -13 8 -1 25 17 25 11 0 14 -8 12 -27z m332 23 c0 -3 -4 -8 -10 -11 -5
-3 -10 -1 -10 4 0 6 5 11 10 11 6 0 10 -2 10 -4z m1426 -11 c10 -8 15 -14 9
-14 -5 0 -19 6 -29 14 -11 8 -15 15 -10 15 6 0 19 -7 30 -15z m-1807 -40 c-2
-24 0 -47 4 -51 4 -4 7 -18 7 -31 0 -13 7 -35 16 -49 20 -29 24 -73 9 -93 -7
-11 -7 -13 3 -7 6 4 12 4 12 -1 0 -4 3 -19 7 -33 6 -24 6 -25 -14 -7 -15 13
-22 35 -26 78 -3 33 -12 71 -21 84 -9 13 -16 33 -16 44 0 11 -5 21 -10 23 -17
5 0 88 17 88 11 0 14 -11 12 -45z m423 31 c7 4 8 2 4 -5 -9 -13 -26 -5 -25 12
0 9 2 8 6 -1 2 -6 10 -9 15 -6z m1602 -135 c-5 -6 -241 111 -269 134 -11 8 46
-17 127 -57 81 -40 145 -74 142 -77z m-94 139 c0 -13 -30 -13 -50 0 -11 7 -7
10 18 10 17 0 32 -4 32 -10z m-1820 -16 c0 -2 -7 -4 -15 -4 -8 0 -15 4 -15 10
0 5 7 7 15 4 8 -4 15 -8 15 -10z m280 6 c0 -5 -8 -10 -17 -10 -15 0 -16 2 -3
10 19 12 20 12 20 0z m775 -37 c14 -14 25 -36 25 -49 0 -12 3 -29 6 -38 12
-30 -12 -16 -28 17 -13 26 -16 28 -15 10 1 -13 5 -23 9 -23 4 0 8 -4 8 -10 0
-5 -7 -7 -15 -4 -8 3 -21 30 -30 59 l-15 54 -33 -11 c-78 -24 -73 -24 -51 -1
10 11 25 22 33 24 29 10 82 -4 106 -28z m75 11 c0 -8 -5 -12 -10 -9 -6 4 -8
11 -5 16 9 14 15 11 15 -7z m-955 -4 c8 -13 -5 -13 -25 0 -13 8 -13 10 2 10 9
0 20 -4 23 -10z m1602 4 c-3 -3 -12 -4 -19 -1 -8 3 -5 6 6 6 11 1 17 -2 13 -5z
m136 -21 c-5 -12 -16 -14 -56 -9 -28 3 -55 11 -61 17 -8 8 -6 10 9 6 61 -16
75 -16 87 -3 16 17 29 11 21 -11z m-663 4 c0 -5 -11 -6 -24 -3 -18 4 -34 -1
-58 -21 -18 -15 -26 -19 -18 -9 14 18 14 19 -7 7 -29 -15 -29 -8 -1 19 17 15
34 20 65 18 24 -1 43 -6 43 -11z m40 3 c0 -5 -7 -7 -15 -4 -8 4 -15 8 -15 10
0 2 7 4 15 4 8 0 15 -4 15 -10z m-1350 -40 c-23 -15 -27 -12 -25 13 4 33 4 33
23 14 15 -16 15 -19 2 -27z m2214 14 c7 -19 2 -18 -19 6 -16 17 -16 20 -3 15
9 -4 19 -13 22 -21z m-1956 4 c7 -7 12 -9 12 -5 0 4 10 -3 22 -15 16 -16 22
-34 22 -69 1 -26 4 -45 7 -43 8 5 16 -44 11 -68 -2 -10 -8 -18 -14 -18 -6 0
-8 8 -5 19 3 14 0 17 -14 14 -18 -5 -18 -3 -4 37 14 39 14 45 -1 61 -10 11
-12 19 -5 24 15 9 14 23 -1 21 -7 0 -14 3 -15 7 -1 4 -12 17 -25 27 -13 11
-18 19 -12 20 5 0 15 -5 22 -12z m802 2 c0 -5 -7 -7 -15 -4 -8 4 -15 8 -15 10
0 2 7 4 15 4 8 0 15 -4 15 -10z m-91 -45 c8 -5 25 -9 38 -10 28 -1 83 -52 83
-77 0 -24 -6 -23 -35 6 -13 14 -34 27 -45 31 -11 4 -17 11 -14 17 4 6 -3 5
-16 -2 -12 -7 -20 -8 -16 -2 5 9 -37 22 -70 22 -19 0 -65 -75 -79 -130 -6 -25
-11 -64 -10 -87 1 -24 -2 -43 -6 -43 -24 0 -20 179 6 230 9 19 33 46 53 60 38
27 47 26 111 -15z m-936 -13 c-19 -48 -33 -62 -33 -35 0 12 -4 25 -10 28 -16
10 -12 25 5 19 8 -4 15 -1 15 6 0 6 5 8 10 5 6 -3 10 1 10 10 0 9 4 14 9 10 6
-3 4 -21 -6 -43z m188 30 c-7 -2 -18 1 -23 6 -8 8 -4 9 13 5 13 -4 18 -8 10
-11z m519 1 c0 -6 -5 -15 -12 -19 -6 -4 -8 -3 -4 4 3 6 2 13 -4 17 -5 3 -10 1
-10 -5 0 -6 -4 -8 -10 -5 -19 12 -10 25 15 23 14 -1 25 -8 25 -15z m1455 -42
c11 -36 -11 -17 -24 21 -10 29 -10 31 3 18 7 -8 17 -26 21 -39z m-94 22 c13
-16 12 -17 -3 -4 -10 7 -18 15 -18 17 0 8 8 3 21 -13z m-1857 -23 c-6 -6 -10
-3 -10 10 0 13 4 16 10 10 7 -7 7 -13 0 -20z m1093 12 c7 -4 9 -13 4 -21 -7
-10 -13 -11 -30 -2 -11 7 -21 16 -21 21 0 12 30 13 47 2z m-1417 -14 c0 -7 6
-24 13 -38 7 -14 12 -46 12 -72 -1 -26 2 -45 7 -42 4 3 8 -1 8 -10 0 -8 5 -16
11 -18 7 -2 5 -9 -5 -17 -14 -11 -16 -11 -16 3 0 10 -4 15 -9 11 -6 -3 -12 16
-16 42 -3 27 -9 72 -13 101 -5 28 -5 52 0 52 4 0 8 -6 8 -12z m283 -25 c-3 -7
-10 -10 -16 -6 -8 5 -8 8 0 10 7 3 9 12 6 21 -4 14 -3 14 5 3 6 -8 8 -20 5
-28z m1951 11 c15 -22 16 -28 5 -35 -17 -10 -37 -10 -64 0 -16 7 -14 9 13 14
29 6 46 27 22 27 -5 0 -10 5 -10 10 0 17 14 10 34 -16z m-2088 -18 c-5 -27 -3
-37 11 -45 10 -6 15 -11 10 -11 -4 0 2 -19 14 -42 14 -28 18 -43 10 -46 -6 -2
-11 -10 -11 -17 0 -8 -4 -16 -9 -19 -10 -7 -8 9 4 37 4 10 5 21 1 24 -3 4 -6
1 -6 -5 0 -18 -30 -2 -31 17 0 10 -2 11 -6 4 -8 -22 -23 -14 -23 11 0 14 -4
36 -10 51 -5 14 -7 24 -2 22 4 -3 16 5 27 16 11 11 14 17 8 13 -14 -7 -18 6
-6 17 16 17 25 4 19 -27z m98 -5 c-6 -6 -24 19 -24 34 1 6 7 1 15 -9 8 -11 12
-22 9 -25z m103 0 c-3 -17 -8 -34 -11 -40 -9 -14 15 -61 31 -61 7 0 13 -4 13
-10 0 -5 -6 -10 -13 -10 -8 0 -19 -10 -26 -22 l-11 -23 6 23 c3 14 1 22 -8 22
-10 0 -10 2 -1 8 10 6 10 15 1 38 -12 33 -3 104 13 104 6 0 8 -13 6 -29z
m1673 19 c8 -5 11 -10 5 -10 -5 0 -17 5 -25 10 -8 5 -10 10 -5 10 6 0 17 -5
25 -10z m-1647 -25 c-7 -21 -13 -19 -13 6 0 11 4 18 10 14 5 -3 7 -12 3 -20z
m999 3 c9 -7 18 -22 20 -33 3 -18 -2 -20 -45 -19 -35 0 -46 -3 -43 -13 8 -20
-80 -21 -99 -1 -7 8 -5 9 8 5 9 -4 17 -2 17 3 0 6 -4 10 -9 10 -7 0 -8 47 -2
56 1 1 31 2 69 3 42 1 73 -3 84 -11z m-1142 -12 c0 -2 -7 -6 -15 -10 -8 -3
-15 -1 -15 4 0 6 7 10 15 10 8 0 15 -2 15 -4z m17 -18 c-3 -8 -6 -5 -6 6 -1
11 2 17 5 13 3 -3 4 -12 1 -19z m63 13 c0 -12 -29 -35 -36 -28 -11 10 5 37 21
37 8 0 15 -4 15 -9z m47 -33 c-3 -8 -6 -5 -6 6 -1 11 2 17 5 13 3 -3 4 -12 1
-19z m-123 -3 c3 -8 3 -22 0 -30 -4 -8 -1 -15 4 -15 6 0 13 8 16 18 3 10 15
18 25 18 11 0 17 -4 15 -8 -3 -4 -12 -8 -21 -8 -10 0 -13 -6 -9 -16 3 -8 2
-12 -3 -9 -5 3 -12 1 -16 -5 -11 -19 -27 2 -20 27 4 16 2 22 -5 18 -5 -3 -10
1 -10 9 0 20 16 21 24 1z m2141 -43 c-7 -7 -34 18 -47 42 -8 16 -3 14 21 -8
17 -16 29 -32 26 -34z m-2068 -14 c-3 -8 -6 -5 -6 6 -1 11 2 17 5 13 3 -3 4
-12 1 -19z m2058 -8 c3 -5 -3 -10 -14 -10 -11 0 -23 5 -26 10 -3 6 3 10 14 10
11 0 23 -4 26 -10z m-2093 -32 c-8 -8 -9 -4 -5 13 4 13 8 18 11 10 2 -7 -1
-18 -6 -23z m205 19 c3 -4 -14 -7 -40 -7 -25 0 -52 -3 -61 -6 -9 -3 -16 -1
-16 4 0 16 102 24 117 9z m-330 -17 c-1 -11 -2 -20 -3 -20 -11 0 -34 14 -34
21 0 4 7 5 17 2 11 -4 14 -3 9 5 -4 7 -3 12 3 12 5 0 9 -9 8 -20z m1154 -3 c4
-5 9 -5 13 2 4 6 14 11 23 11 12 0 13 -3 4 -13 -8 -10 -7 -17 1 -25 9 -9 6
-12 -12 -13 -14 -1 -28 -1 -31 -1 -4 1 -6 -6 -5 -15 0 -8 -7 -17 -17 -19 -41
-6 -49 -14 -43 -39 4 -17 1 -27 -11 -35 -16 -10 -16 -11 3 -7 18 4 20 1 16
-16 -4 -16 -2 -19 11 -14 23 9 21 4 -10 -24 -14 -13 -23 -18 -18 -10 5 9 4 12
-4 10 -7 -3 -12 -8 -11 -13 3 -15 -24 -26 -32 -13 -5 8 -8 6 -8 -5 0 -10 -5
-18 -11 -18 -5 0 -7 -4 -4 -10 3 -5 0 -10 -7 -11 -7 0 -4 -4 7 -9 18 -7 19 -8
3 -15 -10 -4 -18 -11 -18 -16 0 -5 -10 -19 -22 -31 l-23 -23 22 -3 c12 -2 24
-11 28 -20 3 -9 3 -13 -1 -9 -4 4 -14 1 -22 -6 -13 -10 -15 -9 -10 4 5 13 1
15 -19 11 -17 -3 -24 -1 -20 5 4 7 -3 10 -18 9 -18 -1 -24 -5 -20 -16 5 -12 4
-12 -6 -3 -9 9 -16 9 -25 2 -17 -14 -74 -21 -74 -9 0 6 -9 10 -20 10 -18 0
-19 3 -10 20 9 16 8 20 -5 20 -9 0 -14 4 -11 8 3 5 -4 16 -15 25 -20 18 -17
42 5 34 7 -3 18 4 25 15 10 16 10 19 -1 12 -27 -17 -48 -14 -48 6 0 11 7 20
16 20 8 0 12 5 9 10 -4 6 -18 2 -36 -11 -17 -12 -33 -18 -36 -15 -4 3 -2 6 4
6 6 0 9 9 5 22 -4 16 -2 19 8 13 10 -6 12 -4 7 9 -4 9 -3 14 2 11 5 -3 12 -1
16 5 9 15 25 12 25 -6 0 -14 2 -14 16 1 14 13 19 14 26 3 6 -9 7 -6 3 10 -4
13 -2 22 5 22 7 0 9 8 5 20 -4 12 -2 20 5 20 7 0 9 7 6 16 -4 12 -2 15 9 10 8
-3 15 0 16 7 0 7 4 2 9 -10 5 -13 15 -23 22 -23 10 0 10 2 -1 9 -7 5 -10 14
-6 20 5 9 11 7 20 -6 12 -17 14 -16 20 9 4 16 11 25 16 22 5 -3 12 2 15 10 3
9 10 13 16 10 5 -3 12 3 15 14 6 25 59 47 61 26 1 -8 3 -21 4 -29 1 -13 5 -12
22 4 12 11 31 17 45 15 17 -3 22 0 18 10 -3 8 -3 17 0 20 8 8 56 -5 64 -17z
m-123 -1 c-7 -8 -15 -12 -17 -11 -5 6 10 25 20 25 5 0 4 -6 -3 -14z m-1091
-18 c-3 -8 -6 -5 -6 6 -1 11 2 17 5 13 3 -3 4 -12 1 -19z m110 -10 c-3 -8 -6
-5 -6 6 -1 11 2 17 5 13 3 -3 4 -12 1 -19z m253 12 c0 -5 -10 -10 -22 -10 -19
0 -20 2 -8 10 19 13 30 13 30 0z m-320 -4 c0 -3 -4 -8 -10 -11 -5 -3 -10 -1
-10 4 0 6 5 11 10 11 6 0 10 -2 10 -4z m270 -6 c0 -5 -4 -10 -10 -10 -5 0 -10
5 -10 10 0 6 5 10 10 10 6 0 10 -4 10 -10z m1480 -148 c0 -16 -25 19 -44 61
-41 89 -38 106 4 22 22 -44 40 -81 40 -83z m-1840 117 c0 -11 -4 -17 -10 -14
-5 3 -10 15 -10 26 0 11 5 17 10 14 6 -3 10 -15 10 -26z m30 -12 c0 -10 -4
-15 -10 -12 -5 3 -10 18 -10 33 0 21 2 24 10 12 5 -8 10 -23 10 -33z m304 28
c3 -8 1 -15 -4 -15 -6 0 -10 7 -10 15 0 8 2 15 4 15 2 0 6 -7 10 -15z m126 5
c0 -5 -7 -10 -15 -10 -8 0 -15 5 -15 10 0 6 7 10 15 10 8 0 15 -4 15 -10z
m-519 -27 c-8 -15 -10 -15 -11 -2 0 17 10 32 18 25 2 -3 -1 -13 -7 -23z m414
-3 c-18 -20 -35 -26 -35 -12 0 4 10 12 23 18 32 16 32 16 12 -6z m-260 -10 c3
-6 -1 -7 -9 -4 -18 7 -21 14 -7 14 6 0 13 -4 16 -10z m315 -6 c0 -2 -12 -4
-26 -4 -14 0 -23 4 -20 9 6 8 46 4 46 -5z m422 -16 c-7 -7 -12 -8 -12 -2 0 14
12 26 19 19 2 -3 -1 -11 -7 -17z m1218 -23 c0 -5 -5 -3 -10 5 -5 8 -10 20 -10
25 0 6 5 3 10 -5 5 -8 10 -19 10 -25z m-1986 3 c-3 -4 -11 -5 -19 -1 -21 7
-19 12 4 10 11 0 18 -5 15 -9z m286 -2 c0 -11 -19 -15 -25 -6 -3 5 1 10 9 10
9 0 16 -2 16 -4z m240 -53 c13 -14 13 -15 -3 -9 -10 3 -32 6 -48 6 -25 0 -28
2 -17 15 15 16 46 11 68 -12z m-135 -3 c-10 -11 -20 -18 -23 -16 -5 6 21 35
32 36 5 0 1 -9 -9 -20z m-354 -13 c-10 -9 -11 -8 -5 6 3 10 9 15 12 12 3 -3 0
-11 -7 -18z m1806 -107 c13 -36 20 -60 15 -55 -14 16 -52 116 -51 134 0 13 1
14 6 1 3 -8 17 -44 30 -80z m-1377 65 c-11 -13 -10 -18 6 -31 18 -14 18 -15
-3 -9 -17 5 -23 2 -23 -9 0 -10 -6 -13 -16 -9 -13 5 -13 8 -2 15 13 10 -50 6
-102 -6 -14 -4 -19 -4 -12 0 6 3 10 10 6 15 -3 5 3 9 13 9 11 0 24 5 30 11 6
6 29 12 52 12 22 1 41 5 41 10 0 4 5 7 11 7 8 0 7 -5 -1 -15z m710 0 c-7 -9
-15 -13 -17 -11 -7 7 7 26 19 26 6 0 6 -6 -2 -15z m-509 -16 c16 -11 29 -27
29 -35 0 -11 7 -13 26 -8 24 6 25 5 15 -14 -9 -17 -7 -21 12 -26 18 -5 19 -8
7 -15 -10 -7 -17 -6 -22 2 -5 8 -8 6 -8 -5 0 -13 9 -18 33 -19 30 -1 31 -1 7
-9 -17 -6 -19 -8 -7 -9 10 -1 20 -7 23 -15 3 -8 12 -12 20 -9 8 3 14 0 14 -6
0 -6 15 -12 33 -12 17 -1 24 -3 15 -6 -33 -8 -20 -40 22 -57 22 -9 40 -20 40
-24 0 -5 14 -9 30 -9 51 0 122 -83 89 -104 -9 -5 -30 10 -65 47 -43 45 -58 54
-79 50 -14 -3 -23 -1 -20 3 2 5 -4 11 -15 14 -11 3 -20 1 -20 -4 0 -5 -3 -8
-7 -8 -21 3 -43 -2 -43 -10 0 -6 12 -9 28 -7 15 1 32 -5 39 -14 11 -13 14 -13
23 0 7 10 10 11 11 3 1 -7 3 -17 4 -23 1 -5 3 -19 4 -31 1 -15 6 -19 17 -15
14 5 15 4 4 -9 -7 -8 -17 -15 -23 -15 -5 0 -16 -8 -24 -17 -8 -10 -12 -13 -10
-8 3 6 -1 15 -8 22 -10 9 -14 6 -17 -18 -3 -18 0 -29 7 -29 18 0 35 -43 21
-56 -20 -18 -46 -24 -46 -10 0 18 -61 7 -81 -15 -11 -13 -19 -15 -26 -8 -8 8
-13 5 -18 -10 -7 -22 -25 -29 -25 -9 0 6 -3 8 -6 5 -4 -3 -15 -2 -25 4 -15 7
-19 6 -19 -6 0 -8 -5 -15 -10 -15 -6 0 -10 8 -8 18 2 11 -3 17 -14 16 -10 -1
-18 2 -18 7 0 5 6 9 13 9 8 0 7 3 -3 10 -8 5 -17 5 -20 0 -3 -5 -18 -14 -34
-19 -15 -6 -30 -20 -33 -31 -3 -11 -10 -20 -17 -21 -6 0 -23 -2 -38 -3 -27 -2
-33 7 -29 42 1 6 -3 12 -9 12 -5 0 -10 -4 -10 -10 0 -5 -18 -10 -40 -10 -22 0
-40 -4 -40 -10 0 -5 -7 -7 -15 -4 -8 4 -15 1 -15 -5 0 -6 -5 -11 -11 -11 -7 0
-18 -8 -26 -17 -9 -11 -11 -12 -7 -3 6 11 2 10 -13 -3 -22 -19 -103 -24 -103
-6 0 8 -18 10 -55 7 -101 -8 -50 50 90 102 50 19 92 37 95 40 25 28 140 64
124 39 -3 -5 -1 -9 5 -9 5 0 13 5 16 10 3 6 14 10 23 10 15 0 15 -2 2 -11 -11
-8 -7 -9 15 -3 17 4 41 8 55 8 14 0 31 8 38 18 7 10 22 18 32 18 10 0 22 5 25
10 4 6 11 7 17 4 6 -4 9 -1 6 7 -6 15 -51 14 -56 -1 -2 -6 -8 -10 -13 -10 -14
0 -11 28 4 34 6 2 -4 4 -23 4 -19 -1 -41 -6 -49 -12 -12 -9 -13 -7 -9 10 4 14
-3 31 -18 49 -30 35 -18 52 33 48 21 -2 46 -4 56 -4 9 0 17 -4 17 -10 0 -5 6
-9 14 -9 8 0 18 -9 21 -20 3 -11 11 -20 16 -20 6 0 8 4 5 9 -3 5 4 11 16 14
16 4 18 3 9 -6 -14 -14 -15 -30 -1 -22 6 4 7 -2 1 -17 -4 -13 -6 -40 -3 -61 3
-30 0 -42 -18 -57 -12 -10 -19 -23 -16 -29 3 -5 0 -12 -6 -14 -9 -4 -9 -6 -1
-6 6 -1 20 10 30 22 22 29 53 31 53 4 0 -12 5 -17 14 -14 7 3 17 2 22 -3 5 -5
10 17 11 50 2 32 -2 62 -7 65 -6 3 -10 13 -10 21 0 8 4 12 10 9 6 -4 9 4 7 17
-1 16 3 23 15 23 19 0 60 40 51 49 -8 8 -33 -13 -33 -28 0 -6 -9 -12 -20 -12
-11 0 -20 4 -20 8 0 4 -9 16 -20 26 -23 21 -39 82 -21 82 21 0 11 29 -11 32
-13 2 -23 8 -24 13 -2 51 -17 125 -25 125 -6 0 -7 5 -4 10 9 15 24 12 56 -11z
m465 -4 c-3 -23 -12 -26 -13 -5 -1 11 2 20 7 20 4 0 7 -7 6 -15z m-36 -10
c-16 -20 -3 -37 23 -29 22 6 22 6 2 -8 -11 -8 -29 -18 -40 -21 -18 -6 -18 -6
-4 6 14 11 14 14 2 26 -12 11 -12 15 4 27 24 18 28 18 13 -1z m-485 -5 c3 -5
1 -10 -4 -10 -6 0 -11 5 -11 10 0 6 2 10 4 10 3 0 8 -4 11 -10z m552 -5 c0 -8
-4 -12 -9 -9 -5 3 -6 10 -3 15 9 13 12 11 12 -6z m-592 -35 c4 -6 16 -8 28 -5
14 4 18 3 9 -3 -10 -7 -9 -17 3 -51 8 -24 15 -53 15 -65 0 -17 -4 -15 -16 12
-9 17 -21 32 -26 32 -5 0 -6 4 -3 10 3 6 -1 7 -10 4 -11 -4 -19 4 -30 30 -8
19 -15 38 -15 41 0 9 39 5 45 -5z m-212 -30 c-3 -12 -8 -19 -11 -16 -5 6 5 36
12 36 2 0 2 -9 -1 -20z m907 8 c13 -3 90 -47 90 -51 0 -1 -51 0 -114 1 l-115
4 -14 -29 c-13 -25 -13 -32 0 -65 l15 -37 39 24 c45 29 49 30 49 10 0 -8 -6
-15 -12 -15 -9 0 -8 -3 2 -10 12 -7 11 -12 -5 -30 -10 -11 -34 -28 -52 -37
-18 -8 -30 -20 -26 -26 3 -6 1 -7 -6 -3 -6 4 -9 12 -6 17 10 15 14 49 7 48
-19 -3 -33 2 -28 10 3 5 -3 11 -14 14 -19 5 -19 7 -5 48 18 51 39 86 69 115
20 20 65 24 126 12z m-207 -18 c3 -11 1 -18 -4 -14 -5 3 -9 12 -9 20 0 20 7
17 13 -6z m-752 -47 c13 -17 13 -17 -6 -3 -11 8 -22 16 -24 17 -2 2 0 3 6 3 6
0 17 -8 24 -17z m679 -27 c0 -3 -4 -8 -10 -11 -5 -3 -10 -1 -10 4 0 6 5 11 10
11 6 0 10 -2 10 -4z m392 -27 c15 -6 28 -18 28 -25 0 -17 -5 -17 -30 -4 -10 5
-41 10 -69 11 -46 2 -59 7 -46 20 10 11 90 9 117 -2z m-497 -9 c3 -6 -1 -7 -9
-4 -18 7 -21 14 -7 14 6 0 13 -4 16 -10z m555 -50 c-22 -7 -20 -8 15 -10 22 0
78 -14 125 -30 91 -31 91 -39 0 -15 -65 17 -62 17 -57 8 3 -5 -32 -8 -78 -8
-84 0 -100 10 -52 33 21 10 21 11 2 12 l-20 1 20 9 c11 5 31 8 45 8 l25 0 -25
-8z m67 4 c-3 -3 -12 -4 -19 -1 -8 3 -5 6 6 6 11 1 17 -2 13 -5z m-1057 -45
c0 -5 -7 -6 -15 -3 -8 4 -15 13 -15 21 0 13 3 13 15 3 8 -7 15 -16 15 -21z
m-46 -23 c4 -22 2 -25 -8 -16 -8 6 -12 20 -9 31 7 25 10 21 17 -15z m879 5 c4
0 7 -5 7 -11 0 -5 -3 -9 -7 -7 -5 1 -10 -2 -11 -8 -15 -40 -40 -54 -114 -61
-30 -3 -29 1 27 60 28 30 48 36 98 27z m-173 -93 c0 -6 11 -26 25 -44 15 -19
21 -35 15 -39 -5 -3 -10 -1 -10 5 0 17 -30 45 -30 28 -1 -9 -5 -8 -14 4 -10
14 -15 15 -26 5 -9 -9 -11 -9 -6 0 3 6 2 14 -4 18 -15 9 -12 25 4 19 8 -3 17
-1 21 5 8 15 25 14 25 -1z m68 -303 c0 -60 -14 -141 -17 -100 -1 11 -6 27 -12
35 -8 11 -9 9 -3 -10 l7 -25 -27 28 c-14 15 -29 39 -32 52 -6 23 -31 41 -42
30 -3 -3 -1 -5 4 -5 5 0 10 -9 10 -20 0 -34 -15 -6 -25 45 -6 32 -6 55 1 65 8
13 9 12 4 -2 -3 -12 -1 -15 10 -11 18 7 18 8 -2 27 -10 10 -11 16 -4 16 7 0
10 6 7 13 -5 14 19 41 27 29 7 -12 66 -2 67 12 3 34 28 -129 27 -179z m136
120 c-4 -8 -7 -15 -9 -15 -2 0 -5 7 -9 15 -3 9 0 15 9 15 9 0 12 -6 9 -15z
m-373 -22 c-12 -20 -14 -14 -5 12 4 9 9 14 11 11 3 -2 0 -13 -6 -23z m-21 -13
c0 -6 -8 -14 -17 -17 -26 -9 -33 -23 -33 -65 0 -20 -4 -40 -10 -43 -5 -3 -10
-18 -11 -33 0 -27 0 -27 -10 -4 -6 17 -4 32 7 54 8 16 13 37 9 45 -9 25 4 53
25 53 10 0 22 5 25 10 8 13 15 13 15 0z m-224 -55 c-5 -21 -33 -41 -44 -31 -2
3 5 18 17 34 12 17 22 36 22 44 1 7 3 5 6 -5 3 -10 2 -29 -1 -42z m80 3 c3
-11 2 -24 -3 -29 -5 -5 -13 6 -19 25 -8 27 -8 33 2 29 7 -3 16 -14 20 -25z
m185 -129 c33 -36 35 -43 14 -92 -11 -27 -12 -37 -2 -40 9 -4 9 -6 0 -6 -20
-2 -23 16 -9 50 16 40 10 60 -26 89 -29 22 -33 43 -20 101 7 32 7 31 10 -18 2
-41 9 -58 33 -84z m-361 51 c-14 -11 -31 -25 -37 -30 -7 -6 -13 -22 -13 -35 0
-13 -4 -27 -10 -30 -6 -4 -10 10 -10 35 0 35 4 43 33 60 43 26 71 26 37 0z
m133 -13 c7 4 8 0 4 -11 -4 -10 -10 -29 -13 -42 -3 -13 -10 -24 -14 -24 -17 0
-22 43 -9 67 7 14 15 20 17 14 2 -6 9 -8 15 -4z m134 -49 c-3 -7 -5 -2 -5 12
0 14 2 19 5 13 2 -7 2 -19 0 -25z m-82 -54 c29 -19 32 -40 9 -72 -16 -23 -44
-30 -44 -11 0 5 4 8 9 4 5 -3 16 2 25 10 18 18 11 42 -19 67 -26 22 -12 23 20
2z m-63 -112 c-4 -11 -6 -11 -13 0 -7 10 -9 9 -9 -4 0 -10 -4 -18 -10 -18 -17
0 -11 47 7 66 17 16 18 16 24 -7 3 -13 4 -30 1 -37z"/>
<path d="M551 3374 c0 -11 3 -14 6 -6 3 7 2 16 -1 19 -3 4 -6 -2 -5 -13z"/>
<path d="M1103 3283 c9 -2 23 -2 30 0 6 3 -1 5 -18 5 -16 0 -22 -2 -12 -5z"/>
<path d="M1147 3260 c7 -7 11 -25 9 -39 -2 -14 -1 -18 1 -8 3 11 10 16 19 13
24 -9 15 11 -13 29 -16 10 -23 12 -16 5z"/>
<path d="M1065 3246 c-30 -18 -28 -32 9 -50 46 -22 52 -20 64 13 16 46 -23 67
-73 37z"/>
<path d="M1046 3052 c-9 -15 48 -60 85 -67 28 -5 38 -3 42 10 4 9 3 14 -2 11
-5 -3 -26 8 -46 24 -37 30 -69 38 -79 22z"/>
<path d="M863 3015 c-32 -36 -60 -47 -49 -19 4 10 2 13 -6 8 -8 -5 -9 -2 -5
10 4 10 3 15 -3 11 -17 -11 -11 -43 14 -72 22 -25 25 -26 31 -10 5 11 18 17
36 17 19 0 29 5 29 15 0 14 -12 19 -32 16 -15 -2 -8 19 12 39 11 11 16 20 12
20 -5 0 -22 -16 -39 -35z"/>
<path d="M1465 3039 c-4 -6 -5 -12 -2 -15 2 -3 7 2 10 11 7 17 1 20 -8 4z"/>
<path d="M832 2740 c0 -14 2 -19 5 -12 2 6 2 18 0 25 -3 6 -5 1 -5 -13z"/>
<path d="M2166 2991 c-4 -5 3 -7 14 -4 23 6 26 13 6 13 -8 0 -17 -4 -20 -9z"/>
<path d="M2154 2901 c4 -5 2 -11 -4 -13 -6 -2 -4 -15 5 -32 8 -15 15 -30 15
-33 0 -8 -26 21 -38 42 -6 11 -12 14 -12 7 0 -7 -4 -11 -8 -8 -5 3 -9 -1 -9
-9 0 -8 5 -13 10 -12 5 1 12 -4 15 -12 3 -9 0 -11 -8 -6 -8 5 -11 4 -6 -3 4
-6 13 -9 21 -5 19 7 19 -11 0 -27 -19 -16 -19 -40 0 -40 17 0 54 68 52 96 -2
13 4 19 18 17 17 -1 15 3 -10 23 -30 24 -51 32 -41 15z"/>
<path d="M2047 2865 c-4 -8 -2 -17 3 -20 6 -4 10 3 10 14 0 25 -6 27 -13 6z"/>
<path d="M2190 2850 c0 -5 5 -10 11 -10 5 0 7 5 4 10 -3 6 -8 10 -11 10 -2 0
-4 -4 -4 -10z"/>
<path d="M2490 2840 c0 -5 5 -10 11 -10 5 0 7 5 4 10 -3 6 -8 10 -11 10 -2 0
-4 -4 -4 -10z"/>
<path d="M2002 2595 c-2 -32 0 -36 9 -22 5 9 7 22 4 28 -4 6 1 16 10 23 15 11
15 12 -2 12 -16 0 -20 -8 -21 -41z"/>
<path d="M2260 2560 c0 -5 5 -10 10 -10 6 0 10 5 10 10 0 6 -4 10 -10 10 -5 0
-10 -4 -10 -10z"/>
<path d="M2245 2500 c3 -5 8 -10 11 -10 2 0 4 5 4 10 0 6 -5 10 -11 10 -5 0
-7 -4 -4 -10z"/>
<path d="M2001 2409 c-19 -8 -21 -12 -11 -24 19 -23 38 -18 36 10 0 14 -1 25
-1 24 0 0 -11 -5 -24 -10z"/>
<path d="M378 3083 c7 -3 16 -2 19 1 4 3 -2 6 -13 5 -11 0 -14 -3 -6 -6z"/>
<path d="M427 2937 c-4 -10 -7 -28 -6 -40 0 -21 1 -21 10 2 5 14 8 32 7 40 -3
13 -5 13 -11 -2z"/>
<path d="M455 2800 c3 -5 8 -10 11 -10 2 0 4 5 4 10 0 6 -5 10 -11 10 -5 0 -7
-4 -4 -10z"/>
<path d="M368 2643 c7 -3 16 -2 19 1 4 3 -2 6 -13 5 -11 0 -14 -3 -6 -6z"/>
<path d="M338 2613 c7 -3 16 -2 19 1 4 3 -2 6 -13 5 -11 0 -14 -3 -6 -6z"/>
<path d="M330 2559 c0 -5 5 -7 10 -4 6 3 10 8 10 11 0 2 -4 4 -10 4 -5 0 -10
-5 -10 -11z"/>
<path d="M360 2550 c-9 -16 -8 -18 5 -14 8 4 15 12 15 20 0 20 -7 17 -20 -6z"/>
<path d="M550 1639 c0 -11 5 -17 10 -14 6 3 10 13 10 21 0 8 -4 14 -10 14 -5
0 -10 -9 -10 -21z"/>
<path d="M570 1580 c0 -5 5 -10 11 -10 5 0 7 5 4 10 -3 6 -8 10 -11 10 -2 0
-4 -4 -4 -10z"/>
<path d="M630 1553 c0 -24 -21 -35 -47 -26 -15 5 -14 3 2 -10 11 -9 29 -16 40
-16 l20 0 -20 8 c-20 8 -20 8 2 15 11 4 20 13 19 21 -3 24 -16 30 -16 8z"/>
<path d="M556 1495 c4 -8 12 -15 20 -15 8 0 11 6 8 15 -4 8 -12 15 -20 15 -8
0 -11 -6 -8 -15z"/>
<path d="M663 1476 c-9 -11 -7 -13 13 -13 14 0 23 4 21 10 -5 16 -21 18 -34 3z"/>
<path d="M498 1463 c7 -3 16 -2 19 1 4 3 -2 6 -13 5 -11 0 -14 -3 -6 -6z"/>
<path d="M826 1424 c-5 -14 -4 -15 9 -4 17 14 19 20 6 20 -5 0 -12 -7 -15 -16z"/>
<path d="M1063 1645 c0 -11 4 -12 14 -4 7 6 13 13 13 15 0 2 -6 4 -13 4 -8 0
-14 -7 -14 -15z"/>
<path d="M942 1635 c3 -4 2 -20 -2 -36 -5 -17 -5 -31 1 -35 11 -7 35 17 33 34
-1 6 -2 16 -3 21 0 5 -9 12 -18 15 -10 4 -15 4 -11 1z"/>
<path d="M440 1380 c0 -5 5 -10 10 -10 6 0 10 5 10 10 0 6 -4 10 -10 10 -5 0
-10 -4 -10 -10z"/>
<path d="M184 1386 c1 -19 4 -32 9 -29 9 6 9 35 -1 51 -5 8 -8 -1 -8 -22z"/>
<path d="M210 1344 c0 -8 5 -12 10 -9 6 4 8 11 5 16 -9 14 -15 11 -15 -7z"/>
<path d="M1300 1391 c0 -5 7 -11 15 -15 8 -3 15 -1 15 3 0 5 -7 11 -15 15 -8
3 -15 1 -15 -3z"/>
<path d="M1250 1248 c0 -9 5 -20 10 -23 13 -8 13 5 0 25 -8 13 -10 13 -10 -2z"/>
<path d="M1296 1235 c4 -8 10 -15 15 -15 5 0 9 7 9 15 0 8 -7 15 -15 15 -9 0
-12 -6 -9 -15z"/>
<path d="M1120 1208 c0 -9 5 -20 10 -23 13 -8 13 5 0 25 -8 13 -10 13 -10 -2z"/>
<path d="M1090 1150 c0 -5 5 -10 11 -10 5 0 7 5 4 10 -3 6 -8 10 -11 10 -2 0
-4 -4 -4 -10z"/>
<path d="M1160 1022 c1 -4 7 -18 14 -31 l13 -24 5 30 c3 23 0 29 -14 30 -10 1
-18 -1 -18 -5z"/>
<path d="M1137 1006 c-3 -8 -1 -17 6 -19 9 -3 9 -7 0 -19 -14 -16 -8 -28 14
-28 10 0 13 9 9 31 -6 38 -21 57 -29 35z"/>
<path d="M1016 926 c6 -18 5 -19 -8 -9 -22 18 -29 5 -10 -18 12 -14 18 -15 24
-6 5 8 8 6 8 -6 0 -18 2 -17 33 2 19 11 37 18 40 14 4 -3 7 -1 7 5 0 5 3 19 7
29 4 12 -2 9 -20 -9 -28 -30 -37 -34 -37 -18 0 6 8 10 18 10 14 0 15 2 2 10
-8 5 -23 7 -34 4 -10 -4 -16 -2 -13 3 4 5 0 10 -9 10 -10 0 -12 -7 -8 -21z"/>
<path d="M910 631 c-17 -35 -18 -41 -5 -41 9 0 18 7 21 15 7 17 54 21 54 5 0
-5 5 -10 11 -10 21 0 3 35 -19 36 -26 1 -39 11 -28 21 4 4 12 1 17 -7 9 -13
10 -13 6 0 -8 31 -36 22 -57 -19z"/>
<path d="M1030 640 c0 -5 5 -10 10 -10 6 0 10 5 10 10 0 6 -4 10 -10 10 -5 0
-10 -4 -10 -10z"/>
<path d="M743 610 c-29 -12 -29 -15 1 -15 13 0 22 3 20 7 -2 3 4 9 13 11 12 3
13 5 3 5 -8 0 -25 -3 -37 -8z"/>
<path d="M725 560 c4 -6 11 -8 16 -5 14 9 11 15 -7 15 -8 0 -12 -5 -9 -10z"/>
<path d="M1370 930 c-11 -8 -7 -9 15 -4 37 8 45 14 19 14 -10 0 -26 -5 -34
-10z"/>
<path d="M1435 920 c3 -5 10 -10 16 -10 5 0 9 5 9 10 0 6 -7 10 -16 10 -8 0
-12 -4 -9 -10z"/>
<path d="M1220 365 c0 -14 4 -25 9 -25 4 0 6 11 3 25 -2 14 -6 25 -8 25 -2 0
-4 -11 -4 -25z"/>
<path d="M2905 3269 c4 -6 0 -9 -11 -7 -14 2 -20 -4 -22 -24 -3 -22 1 -28 15
-28 15 0 16 2 3 10 -12 8 -11 10 8 10 17 0 22 6 22 25 0 14 -5 25 -11 25 -5 0
-7 -5 -4 -11z"/>
<path d="M260 2860 c0 -5 5 -10 11 -10 5 0 7 5 4 10 -3 6 -8 10 -11 10 -2 0
-4 -4 -4 -10z"/>
<path d="M10 2791 c0 -17 18 -21 24 -6 3 9 0 15 -9 15 -8 0 -15 -4 -15 -9z"/>
<path d="M222 2760 c0 -14 2 -19 5 -12 2 6 2 18 0 25 -3 6 -5 1 -5 -13z"/>
<path d="M10 2715 c-10 -12 -10 -19 -2 -27 9 -9 12 -7 12 9 0 12 6 24 13 26 7
4 8 6 1 6 -6 1 -17 -6 -24 -14z"/>
<path d="M207 2693 c-13 -12 -7 -22 10 -16 13 5 15 3 8 -13 -13 -31 -7 -65 15
-84 11 -9 16 -21 12 -25 -4 -5 -1 -5 6 -1 11 7 10 11 -3 25 -8 10 -15 26 -14
37 7 67 -9 102 -34 77z"/>
<path d="M157 2639 c6 -23 9 -24 16 -5 3 8 0 17 -7 19 -10 4 -12 -1 -9 -14z"/>
<path d="M38 2601 c-2 -37 0 -47 9 -39 12 10 14 88 2 88 -4 0 -9 -22 -11 -49z"/>
<path d="M0 2630 c0 -5 4 -11 10 -15 5 -3 7 -13 4 -23 -5 -14 -4 -15 5 -2 15
21 14 37 -4 44 -8 3 -15 1 -15 -4z"/>
<path d="M107 2603 c-7 -39 -1 -40 18 -4 13 26 13 31 1 31 -7 0 -16 -12 -19
-27z"/>
<path d="M180 2610 c0 -5 5 -10 10 -10 6 0 10 5 10 10 0 6 -4 10 -10 10 -5 0
-10 -4 -10 -10z"/>
<path d="M130 2559 c0 -6 -9 -8 -22 -4 -18 6 -20 5 -11 -5 13 -14 67 -5 58 10
-8 13 -25 13 -25 -1z"/>
<path d="M2 1420 c0 -19 2 -27 5 -17 2 9 2 25 0 35 -3 9 -5 1 -5 -18z"/>
</g>
</svg>
